<?xml version="1.0" encoding="UTF-8" standalone="no"?>
<svg width="235px" height="128px" viewBox="0 0 235 128" version="1.1" xmlns="http://www.w3.org/2000/svg" xmlns:xlink="http://www.w3.org/1999/xlink">
    <!-- Generator: Sketch 3.8.1 (29687) - http://www.bohemiancoding.com/sketch -->
    <title>Shape</title>
    <desc>Created with Sketch.</desc>
    <defs></defs>
    <g id="Page-1" stroke="none" stroke-width="1" fill="none" fill-rule="evenodd">
        <path d="M192.543795,24.0959991 C188.982433,24.0959991 185.623508,24.9042263 182.579877,26.278263 C176.496159,14.1508072 163.981543,5.80233197 149.487101,5.80233197 C140.05964,5.80233197 131.479375,9.35458388 124.941187,15.1569159 C113.945856,5.76842388 99.4225661,0 83.4478074,0 C49.6292963,0 22.1844938,25.6152839 21.4876067,57.4499187 C8.80800573,63.3347435 0,76.1398551 0,91.0310732 C0,108.240188 11.755479,122.671875 27.6674825,126.823845 L199.019227,128 C218.846856,127.288942 234.715336,111.032797 234.715336,91.0310732 C234.715336,76.7496946 226.623955,64.3798212 214.781428,58.1999454 C216.102325,55.1993326 216.867029,51.9036688 216.867029,48.4146782 C216.867535,34.9845445 205.978483,24.0959991 192.543795,24.0959991 L192.543795,24.0959991 L192.543795,24.0959991 Z" id="Shape" fill="#7ECBEA"></path>
    </g>
</svg>