<?xml version="1.0" encoding="UTF-8" standalone="no"?>
<svg width="801px" height="729px" viewBox="0 0 801 729" version="1.1" xmlns="http://www.w3.org/2000/svg" xmlns:xlink="http://www.w3.org/1999/xlink">
    <!-- Generator: Sketch 3.8.1 (29687) - http://www.bohemiancoding.com/sketch -->
    <title>Group 2</title>
    <desc>Created with Sketch.</desc>
    <defs></defs>
    <g id="Page-1" stroke="none" stroke-width="1" fill="none" fill-rule="evenodd">
        <g id="Group-2">
            <g id="pipes-tubes-angle" transform="translate(552.589996, 421.241856)" fill="#FFFFFF">
                <g id="iconos_6_">
                    <rect id="Rectangle-path" x="0.162699262" y="0.560950025" width="34.8798694" height="61.0342166"></rect>
                </g>
            </g>
            <g id="pipe-losing-water" transform="translate(639.966242, 482.209991)" fill="#FFFFFF">
                <g id="Group">
                    <path d="M62.2200152,37.5551725 L37.7880721,37.5551725 L37.7880721,13.3892354 L44.6290162,13.3892354 L44.6290162,0 L0,0 L0,13.3892354 L6.84094408,13.3892354 L6.84094408,50.6178411 C6.84094408,55.6250886 8.57821812,59.8162459 12.053092,63.1906597 C15.5279658,66.5650736 19.6540323,68.2524439 24.4319432,68.2524439 L62.2200152,68.2524439 L62.2200152,74.7837782 L75.5761441,74.7837782 L75.5761441,31.0238381 L62.2200152,31.0238381 L62.2200152,37.5551725 L62.2200152,37.5551725 L62.2200152,37.5551725 Z" id="Shape"></path>
                    <path d="M153.432603,92.4183809 L153.432603,55.1897752 C153.432603,50.1822011 151.695329,45.9913705 148.220455,42.6169566 C144.745581,39.2425427 140.619515,37.5551725 135.841604,37.5551725 L98.0535318,37.5551725 L98.0535318,31.0238381 L84.6974029,31.0238381 L84.6974029,74.7837782 L98.0535318,74.7837782 L98.0535318,68.2524439 L122.485475,68.2524439 L122.485475,92.4183809 L115.644531,92.4183809 L115.644531,105.48105 L160.273547,105.48105 L160.273547,92.4183809 L153.432603,92.4183809 L153.432603,92.4183809 L153.432603,92.4183809 Z" id="Shape"></path>
                    <path d="M150.175011,142.056522 C150.175011,140.097122 149.143331,136.994738 147.080298,132.74937 C145.017264,128.504003 142.953905,124.748486 140.890872,121.482819 L137.796159,116.584318 C129.760656,128.993853 125.743067,137.484588 125.743067,142.056522 C125.743067,145.322189 126.937627,148.152543 129.326419,150.547257 C131.715863,152.94197 134.593295,154.13949 137.959039,154.13949 C141.325109,154.13949 144.202866,152.94197 146.591659,150.547257 C148.980451,148.152543 150.175011,145.322189 150.175011,142.056522 L150.175011,142.056522 L150.175011,142.056522 Z" id="Shape"></path>
                </g>
            </g>
            <g id="pipe-valve" transform="translate(368.849307, 239.819999)" fill="#FFFFFF">
                <g id="Group">
                    <path d="M103.33146,37.7011077 L91.7305251,37.7011077 L91.7305251,23.3786488 L80.1850193,23.3786488 L80.1850193,14.636863 C85.8621933,14.5255411 91.5422098,14.1691691 97.2392812,13.5592109 C103.529368,9.98019662 103.528658,7.47563354 97.2392812,3.89697496 C91.5422098,3.28666109 85.861838,2.93100033 80.1850193,2.81967851 L80.1850193,0.13550675 L72.5991097,0.13550675 L72.5991097,2.81967851 C66.922291,2.93100033 61.2419192,3.28666109 55.5448477,3.89697496 C49.255116,7.47563354 49.255116,9.98019662 55.5448477,13.5592109 C61.2419192,14.1691691 66.922291,14.5258968 72.5991097,14.636863 L72.5991097,23.3786488 L61.0536039,23.3786488 L61.0536039,37.7011077 L49.4526694,37.7011077 L49.4526694,46.0175232 L103.33146,46.0175232 L103.33146,37.7011077 L103.33146,37.7011077 L103.33146,37.7011077 L103.33146,37.7011077 Z M68.2966375,30.6291491 L84.4871361,30.6291491 L84.4871361,37.7014633 L68.2966375,37.7014633 L68.2966375,30.6291491 L68.2966375,30.6291491 L68.2966375,30.6291491 L68.2966375,30.6291491 Z" id="Shape"></path>
                    <path d="M127.188168,85.4915998 L103.192177,85.4915998 C99.6355049,85.4172667 96.7638739,82.5033381 96.7638739,78.9253908 L96.7638739,69.5708015 C96.7638739,65.94484 99.7097651,62.9960566 103.331104,62.9960566 L103.331104,61.9408112 L103.331104,58.7323954 L103.331104,53.6243956 L49.4526694,53.6243956 L49.4526694,58.7323954 L49.4526694,61.9408112 L49.4526694,62.9960566 C53.0740086,62.9960566 56.0198998,65.94484 56.0198998,69.5708015 L56.0198998,78.9253908 C56.0198998,82.5033381 53.1482688,85.4172667 49.5915964,85.4915998 L25.5956053,85.4915998 L25.5956053,79.8529541 L16.6062136,79.8529541 L16.6062136,127.19069 L25.5956053,127.19069 L25.5956053,121.433965 L127.188168,121.433965 L127.188168,127.19069 L136.17756,127.19069 L136.17756,79.8529541 L127.188168,79.8529541 L127.188168,85.4915998 L127.188168,85.4915998 L127.188168,85.4915998 L127.188168,85.4915998 Z" id="Shape"></path>
                    <rect id="Rectangle-path" x="143.794737" y="79.8529541" width="8.98939177" height="47.3380916"></rect>
                    <rect id="Rectangle-path" x="-5.24913446e-13" y="79.8529541" width="8.98939177" height="47.3380916"></rect>
                </g>
            </g>
            <g id="pipes-tubes-angle" transform="translate(120.200627, 322.284479)" fill="#FFFFFF">
                <g id="iconos_6_">
                    <rect id="Rectangle-path" x="5.65183069" y="75.744859" width="33.9109841" height="84.5578209"></rect>
                    <rect id="Rectangle-path" x="73.473799" y="6.28649106" width="79.1256297" height="33.2193018"></rect>
                    <path d="M59.3440745,6.28649106 L32.7324482,6.28649106 C5.65183069,6.28649106 5.65183069,33.4656327 5.65183069,33.4656327 L5.65183069,60.6447744 L-2.34479103e-13,60.6447744 L-2.34479103e-13,69.7046988 L45.2146455,69.7046988 L45.2146455,60.6447744 L39.5628148,60.6447744 L39.5628148,49.3201847 C39.5628148,49.3201847 38.6218774,39.5054771 48.0407086,39.5054771 L59.34437,39.5054771 L59.34437,45.5453214 L67.8219683,45.5453214 L67.8219683,39.5054771 L67.8219683,6.28649106 L67.8219683,0.246646716 L59.3440745,0.246646716 L59.3440745,6.28649106 L59.3440745,6.28649106 L59.3440745,6.28649106 Z" id="Shape"></path>
                </g>
            </g>
            <g id="meter" transform="translate(356.906450, 691.109464) scale(1, -1) translate(-356.906450, -691.109464) translate(328.406450, 653.609464)" fill="#FFFFFF">
                <g id="Group">
                    <path d="M28.1818309,6.18290387 C16.0482015,6.18290387 6.17683966,16.0639571 6.17683966,28.2094989 C6.17683966,40.3550407 16.0482015,50.236094 28.1818309,50.236094 C40.3154604,50.236094 50.1868222,40.3550407 50.1868222,28.2094989 C50.1868222,16.0639571 40.3154604,6.18290387 28.1818309,6.18290387 L28.1818309,6.18290387 L28.1818309,6.18290387 Z M31.6096681,34.7559575 L30.4149129,38.6431492 L25.948749,38.6431492 L24.7539938,34.7561121 L28.1818309,21.8885617 L31.6096681,34.7559575 L31.6096681,34.7559575 L31.6096681,34.7559575 Z M28.1818309,47.9173504 C17.714404,47.9173504 9.12983228,39.6982617 8.5282081,29.3687934 L13.5118368,29.3687934 L13.5118368,27.0502044 L8.5282081,27.0502044 C8.77126674,22.8756623 10.3181018,19.0461262 12.7664466,15.9642578 L15.7813621,18.9821332 L17.4193055,17.3425816 L14.3138994,14.2341267 C17.6188174,10.9476042 22.0791134,8.82501327 27.0236735,8.5365808 L27.0236735,13.5251022 L28.01274,13.5251022 L22.344563,34.8015565 L24.2380732,40.9617382 L32.1255886,40.9617382 L34.0192533,34.8015565 L28.3509219,13.5251022 L29.3399884,13.5251022 L29.3399884,8.5365808 C34.2845485,8.82516784 38.7448444,10.9477587 42.0499169,14.2339721 L38.9445108,17.3424271 L40.5824542,18.9819786 L43.5973697,15.9641032 C46.0457145,19.0459717 47.5925496,22.8755077 47.8356082,27.0500499 L42.8518251,27.0500499 L42.8518251,29.3686388 L47.8354538,29.3686388 C47.2338296,39.6981072 38.6492579,47.9173504 28.1818309,47.9173504 L28.1818309,47.9173504 L28.1818309,47.9173504 Z" id="Shape"></path>
                    <path d="M56.3636619,28.2094989 C56.3636619,12.6547039 43.7213697,0 28.1818309,0 C12.6422922,0 -1.13686838e-13,12.6547039 -1.13686838e-13,28.2094989 C-1.13686838e-13,42.2014104 10.218037,54.0087473 23.9352537,56.0892945 L23.9352537,67.2390796 L18.1444665,67.2390796 C16.6544584,67.2390796 15.4420991,68.4526291 15.4420991,69.9441 L15.4420991,72.6491205 L8.87920701,72.6491205 L8.87920701,74.9677094 L47.4844549,74.9677094 L47.4844549,72.6491205 L40.9215627,72.6491205 L40.9215627,69.9441 C40.9215627,68.4526291 39.7092035,67.2390796 38.2191954,67.2390796 L32.4284082,67.2390796 L32.4284082,56.0892945 C46.1456249,54.0087473 56.3636619,42.2014104 56.3636619,28.2094989 L56.3636619,28.2094989 L56.3636619,28.2094989 Z M38.2191954,69.5576686 C38.4284358,69.5576686 38.6052479,69.7346542 38.6052479,69.9441 L38.6052479,72.6491205 L17.758414,72.6491205 L17.758414,69.9441 C17.758414,69.7346542 17.9352261,69.5576686 18.1444665,69.5576686 L38.2191954,69.5576686 L38.2191954,69.5576686 L38.2191954,69.5576686 Z M31.1383752,53.9224958 L30.1120933,54.0401256 L30.1120933,67.2390796 L26.2515686,67.2390796 L26.2515686,54.0401256 L25.2252866,53.9223412 C12.1649769,52.4231416 2.31631487,41.3690369 2.31631487,28.2094989 C2.31631487,13.9333284 13.9196626,2.31858895 28.1818309,2.31858895 C42.4439993,2.31858895 54.047347,13.9333284 54.047347,28.2094989 C54.047347,41.3690369 44.198685,52.4231416 31.1383752,53.9224958 L31.1383752,53.9224958 L31.1383752,53.9224958 Z" id="Shape"></path>
                </g>
            </g>
            <g id="pipes-tubes-angle" transform="translate(196.700627, 568.643692) scale(1, -1) translate(-196.700627, -568.643692) translate(120.200627, 488.143692)" fill="#FFFFFF">
                <g id="iconos_6_">
                    <rect id="Rectangle-path" x="5.65183069" y="75.744859" width="33.9109841" height="84.5578209"></rect>
                    <rect id="Rectangle-path" x="73.473799" y="6.28649106" width="79.1256297" height="33.2193018"></rect>
                    <path d="M59.3440745,6.28649106 L32.7324482,6.28649106 C5.65183069,6.28649106 5.65183069,33.4656327 5.65183069,33.4656327 L5.65183069,60.6447744 L-2.34479103e-13,60.6447744 L-2.34479103e-13,69.7046988 L45.2146455,69.7046988 L45.2146455,60.6447744 L39.5628148,60.6447744 L39.5628148,49.3201847 C39.5628148,49.3201847 38.6218774,39.5054771 48.0407086,39.5054771 L59.34437,39.5054771 L59.34437,45.5453214 L67.8219683,45.5453214 L67.8219683,39.5054771 L67.8219683,6.28649106 L67.8219683,0.246646716 L59.3440745,0.246646716 L59.3440745,6.28649106 L59.3440745,6.28649106 L59.3440745,6.28649106 Z" id="Shape"></path>
                </g>
            </g>
            <g id="pipe-valve" transform="translate(281.972057, 604.163067)" fill="#FFFFFF">
                <g id="Group">
                    <path d="M103.192177,6.02582777 C100.254159,5.9644243 53.1482688,5.95149467 49.5915964,6.02582777 L25.5956053,6.02582777 L25.5956053,0.387182068 L16.6062136,0.387182068 L16.6062136,47.724918 L25.5956053,47.724918 L25.5956053,41.968193 L127.188168,41.968193 L127.188168,47.724918 L136.17756,47.724918 L136.17756,0.387182068 L127.188168,0.387182068 L127.188168,6.02582777 L103.192177,6.02582777 L103.192177,6.02582777 Z" id="Shape"></path>
                    <rect id="Rectangle-path" x="143.794737" y="0.387182068" width="8.98939177" height="47.3380916"></rect>
                    <rect id="Rectangle-path" x="-1.99840144e-13" y="0.387182068" width="8.98939177" height="47.3380916"></rect>
                </g>
            </g>
            <g id="pipes-tubes-angle" transform="translate(516.529733, 568.643692) scale(-1, -1) translate(-516.529733, -568.643692) translate(440.029733, 488.143692)" fill="#FFFFFF">
                <g id="iconos_6_">
                    <rect id="Rectangle-path" x="5.65183069" y="75.744859" width="33.9109841" height="84.5578209"></rect>
                    <rect id="Rectangle-path" x="73.473799" y="6.28649106" width="79.1256297" height="33.2193018"></rect>
                    <path d="M59.3440745,6.28649106 L32.7324482,6.28649106 C5.65183069,6.28649106 5.65183069,33.4656327 5.65183069,33.4656327 L5.65183069,60.6447744 L0,60.6447744 L0,69.7046988 L45.2146455,69.7046988 L45.2146455,60.6447744 L39.5628148,60.6447744 L39.5628148,49.3201847 C39.5628148,49.3201847 38.6218774,39.5054771 48.0407086,39.5054771 L59.34437,39.5054771 L59.34437,45.5453214 L67.8219683,45.5453214 L67.8219683,39.5054771 L67.8219683,6.28649106 L67.8219683,0.246646716 L59.3440745,0.246646716 L59.3440745,6.28649106 L59.3440745,6.28649106 L59.3440745,6.28649106 Z" id="Shape"></path>
                </g>
            </g>
            <g id="pipe-valve" transform="translate(570.376549, 348.170780) rotate(270.000000) translate(-570.376549, -348.170780) translate(507.876549, 328.670780)" fill="#327F9E">
                <g id="Group">
                    <path d="M83.7620047,4.8912178 C81.3771889,4.84137606 43.1409207,4.83088096 40.2539382,4.8912178 L20.7761797,4.8912178 L20.7761797,0.314279115 L13.4794107,0.314279115 L13.4794107,38.7387389 L20.7761797,38.7387389 L20.7761797,34.0659541 L103.239763,34.0659541 L103.239763,38.7387389 L110.536532,38.7387389 L110.536532,0.314279115 L103.239763,0.314279115 L103.239763,4.8912178 L83.7620047,4.8912178 L83.7620047,4.8912178 Z" id="Shape"></path>
                    <rect id="Rectangle-path" x="116.719462" y="0.314279115" width="7.29676896" height="38.4247484"></rect>
                    <rect id="Rectangle-path" x="0" y="0.314279115" width="7.29676896" height="38.4247484"></rect>
                </g>
            </g>
            <g id="pipes-tubes-angle" transform="translate(607.402751, 400.783187) scale(-1, 1) translate(-607.402751, -400.783187) translate(530.902751, 325.283187)" fill="#FFFFFF">
                <g id="iconos_6_">
                    <rect id="Rectangle-path" x="5.65183069" y="70.9484194" width="33.9109841" height="79.2033125"></rect>
                    <rect id="Rectangle-path" x="73.473799" y="5.88840762" width="79.1256297" height="31.115735"></rect>
                    <path d="M59.3440745,5.88840762 L32.7324482,5.88840762 C5.65183069,5.88840762 5.65183069,31.3464673 5.65183069,31.3464673 L5.65183069,56.804527 L0,56.804527 L0,65.2907441 L45.2146455,65.2907441 L45.2146455,56.804527 L39.5628148,56.804527 L39.5628148,46.1970514 C39.5628148,46.1970514 38.6218774,37.0038468 48.0407086,37.0038468 L59.34437,37.0038468 L59.34437,42.6612262 L67.8219683,42.6612262 L67.8219683,37.0038468 L67.8219683,5.88840762 L67.8219683,0.23102815 L59.3440745,0.23102815 L59.3440745,5.88840762 L59.3440745,5.88840762 L59.3440745,5.88840762 Z" id="Shape"></path>
                </g>
            </g>
            <g id="pipes-tubes-angle" transform="translate(521.801790, 212.859393) scale(-1, 1) translate(-521.801790, -212.859393) translate(453.301790, 148.359393)" fill="#FFFFFF">
                <g id="iconos_6_">
                    <rect id="Rectangle-path" x="5.07080137" y="67.9580043" width="30.4248082" height="60.8737778"></rect>
                    <rect id="Rectangle-path" x="65.9204178" y="5.64021628" width="70.9912191" height="29.8042334"></rect>
                    <path d="M53.2432818,5.64021628 L29.3674301,5.64021628 C5.07080137,5.64021628 5.07080137,30.0252406 5.07080137,30.0252406 L5.07080137,54.4102649 L0,54.4102649 L0,62.5387952 L40.5664109,62.5387952 L40.5664109,54.4102649 L35.4956096,54.4102649 L35.4956096,44.2498853 C35.4956096,44.2498853 34.651404,35.4441663 43.1019442,35.4441663 L53.2435469,35.4441663 L53.2435469,40.8630921 L60.8496164,40.8630921 L60.8496164,35.4441663 L60.8496164,5.64021628 L60.8496164,0.221290511 L53.2432818,0.221290511 L53.2432818,5.64021628 L53.2432818,5.64021628 L53.2432818,5.64021628 Z" id="Shape"></path>
                </g>
            </g>
            <g id="pipes-tubes-angle" transform="translate(84.965839, 126.718773) scale(1, -1) translate(-84.965839, -126.718773) translate(16.465839, 62.218773)" fill="#FFFFFF">
                <g id="iconos_6_">
                    <rect id="Rectangle-path" x="5.07080137" y="67.9580043" width="30.4248082" height="60.8737778"></rect>
                    <rect id="Rectangle-path" x="65.9204178" y="5.64021628" width="70.9912191" height="29.8042334"></rect>
                    <path d="M53.2432818,5.64021628 L29.3674301,5.64021628 C5.07080137,5.64021628 5.07080137,30.0252406 5.07080137,30.0252406 L5.07080137,54.4102649 L-1.66977543e-13,54.4102649 L-1.66977543e-13,62.5387952 L40.5664109,62.5387952 L40.5664109,54.4102649 L35.4956096,54.4102649 L35.4956096,44.2498853 C35.4956096,44.2498853 34.651404,35.4441663 43.1019442,35.4441663 L53.2435469,35.4441663 L53.2435469,40.8630921 L60.8496164,40.8630921 L60.8496164,35.4441663 L60.8496164,5.64021628 L60.8496164,0.221290511 L53.2432818,0.221290511 L53.2432818,5.64021628 L53.2432818,5.64021628 L53.2432818,5.64021628 Z" id="Shape"></path>
                </g>
            </g>
            <g id="funnel-tool" fill="#FFFFFF">
                <path d="M0.00025800461,0.165561574 L26.6699717,32.3123654 L27.2998843,57.8147716 C27.2998843,57.9086486 45.1498086,57.9116443 45.1498086,57.8147716 L45.7793375,32.3129852 L72.449256,0.165561574 C72.6553972,-0.0830798816 -0.158123178,-0.0254198107 0.00025800461,0.165561574 L0.00025800461,0.165561574 Z" id="Shape"></path>
            </g>
            <g id="pipe-valve" transform="translate(243.000000, 151.000000)" fill="#FFFFFF">
                <g id="Group">
                    <path d="M80.6188885,4.70767795 C78.3235614,4.65970649 41.522085,4.64960521 38.7434347,4.70767795 L19.9965667,4.70767795 L19.9965667,0.30248599 L12.9736044,0.30248599 L12.9736044,37.2850922 L19.9965667,37.2850922 L19.9965667,32.7876508 L99.3657565,32.7876508 L99.3657565,37.2850922 L106.388719,37.2850922 L106.388719,0.30248599 L99.3657565,0.30248599 L99.3657565,4.70767795 L80.6188885,4.70767795 L80.6188885,4.70767795 Z" id="Shape"></path>
                    <rect id="Rectangle-path" x="112.339638" y="0.30248599" width="7.02296232" height="36.9828841"></rect>
                    <rect id="Rectangle-path" x="-3.54827279e-13" y="0.30248599" width="7.02296232" height="36.9828841"></rect>
                </g>
            </g>
            <g id="pipe-valve" transform="translate(367.000000, 154.000000)" fill="#FFFFFF">
                <g id="Group">
                    <path d="M62.7127467,0.04260509 C60.3382704,-0.00867474888 22.2677776,-0.0194726597 19.3933117,0.04260509 L-1.4878131e-13,0.04260509 L-1.4878131e-13,30.0591277 L82.1060584,30.0591277 L82.1060584,0.04260509 L62.7127467,0.04260509 L62.7127467,0.04260509 Z" id="Shape"></path>
                </g>
            </g>
            <g id="pipe-valve" transform="translate(158.150002, 155.856164)" fill="#FFFFFF">
                <g id="Group">
                    <path d="M60.6223218,0.04260509 C58.3269947,-0.00867474888 21.5255183,-0.0194726597 18.746868,0.04260509 L-5.95041947e-14,0.04260509 L-5.95041947e-14,30.0591277 L79.3691898,30.0591277 L79.3691898,0.04260509 L60.6223218,0.04260509 L60.6223218,0.04260509 Z" id="Shape"></path>
                </g>
            </g>
            <g id="pipes-tubes-angle" transform="translate(278.976290, 328.281896)" fill="#FFFFFF">
                <g id="iconos_6_">
                    <rect id="Rectangle-path" x="0.0775017152" y="0.289074307" width="79.1256297" height="33.2193018"></rect>
                </g>
            </g>
        </g>
    </g>
</svg>