<svg width="883px" height="620px" viewBox="0 0 883 620">
    <g id="Page-1" stroke="none" stroke-width="1" fill="none" fill-rule="evenodd" fill-opacity="0.42">
        <g id="pipes_left" fill="#327F9E">
            <g id="Group" transform="translate(802.500000, 564.000000) scale(-1, 1) translate(-802.500000, -564.000000) translate(722.000000, 508.000000)">
                <rect id="Rectangle-path" transform="translate(118.023769, 89.392677) rotate(-90.000000) translate(-118.023769, -89.392677) " x="101.068277" y="47.1137668" width="33.9109841" height="84.5578209"></rect>
                <rect id="Rectangle-path" transform="translate(22.896142, 19.461200) rotate(-90.000000) translate(-22.896142, -19.461200) " x="3.83114141" y="2.85154955" width="38.1300011" height="33.2193018"></rect>
                <path d="M60.4087631,49.3998342 L33.7971368,49.3998342 C6.7165193,49.3998342 6.7165193,76.5789758 6.7165193,76.5789758 L6.7165193,103.758117 L1.06468861,103.758117 L1.06468861,112.818042 L46.2793341,112.818042 L46.2793341,103.758117 L40.6275034,103.758117 L40.6275034,92.4335278 C40.6275034,92.4335278 39.686566,82.6188202 49.1053972,82.6188202 L60.4090586,82.6188202 L60.4090586,88.6586645 L68.8866569,88.6586645 L68.8866569,82.6188202 L68.8866569,49.3998342 L68.8866569,43.3599898 L60.4087631,43.3599898 L60.4087631,49.3998342 L60.4087631,49.3998342 L60.4087631,49.3998342 Z" id="Shape" transform="translate(34.975673, 78.089016) rotate(-90.000000) translate(-34.975673, -78.089016) "></path>
            </g>
            <g id="Group-2">
                <path d="M185.33146,37.7011077 L173.730525,37.7011077 L173.730525,23.3786488 L162.185019,23.3786488 L162.185019,14.636863 C167.862193,14.5255411 173.54221,14.1691691 179.239281,13.5592109 C185.529368,9.98019662 185.528658,7.47563354 179.239281,3.89697496 C173.54221,3.28666109 167.861838,2.93100033 162.185019,2.81967851 L162.185019,0.13550675 L154.59911,0.13550675 L154.59911,2.81967851 C148.922291,2.93100033 143.241919,3.28666109 137.544848,3.89697496 C131.255116,7.47563354 131.255116,9.98019662 137.544848,13.5592109 C143.241919,14.1691691 148.922291,14.5258968 154.59911,14.636863 L154.59911,23.3786488 L143.053604,23.3786488 L143.053604,37.7011077 L131.452669,37.7011077 L131.452669,46.0175232 L185.33146,46.0175232 L185.33146,37.7011077 L185.33146,37.7011077 L185.33146,37.7011077 L185.33146,37.7011077 Z M150.296638,30.6291491 L166.487136,30.6291491 L166.487136,37.7014633 L150.296638,37.7014633 L150.296638,30.6291491 L150.296638,30.6291491 L150.296638,30.6291491 L150.296638,30.6291491 Z" id="Shape"></path>
                <path d="M209.188168,85.4915998 L185.192177,85.4915998 C181.635505,85.4172667 178.763874,82.5033381 178.763874,78.9253908 L178.763874,69.5708015 C178.763874,65.94484 181.709765,62.9960566 185.331104,62.9960566 L185.331104,61.9408112 L185.331104,58.7323954 L185.331104,53.6243956 L131.452669,53.6243956 L131.452669,58.7323954 L131.452669,61.9408112 L131.452669,62.9960566 C135.074009,62.9960566 138.0199,65.94484 138.0199,69.5708015 L138.0199,78.9253908 C138.0199,82.5033381 135.148269,85.4172667 131.591596,85.4915998 L107.595605,85.4915998 L107.595605,79.8529541 L98.6062136,79.8529541 L98.6062136,127.19069 L107.595605,127.19069 L107.595605,121.433965 L209.188168,121.433965 L209.188168,127.19069 L218.17756,127.19069 L218.17756,79.8529541 L209.188168,79.8529541 L209.188168,85.4915998 L209.188168,85.4915998 L209.188168,85.4915998 L209.188168,85.4915998 Z" id="Shape"></path>
                <rect id="Rectangle-path" x="225.794737" y="79.8529541" width="8.98939177" height="47.3380916"></rect>
                <rect id="Rectangle-path" x="82" y="79.8529541" width="8.98939177" height="47.3380916"></rect>
                <path d="M57.7177303,90.8987691 C55.5380582,90.8474893 20.5909032,90.8366913 17.9522612,90.8987691 L0.149994371,90.8987691 L0.149994371,120.915292 L75.5199971,120.915292 L75.5199971,90.8987691 L57.7177303,90.8987691 L57.7177303,90.8987691 Z" id="Shape"></path>
                <path d="M302.772323,87.8987692 C300.476996,87.8474894 263.67552,87.8366915 260.896869,87.8987692 L242.150002,87.8987692 L242.150002,117.915292 L321.519191,117.915292 L321.519191,87.8987692 L302.772323,87.8987692 L302.772323,87.8987692 Z" id="Shape"></path>
            </g>
            <g id="Group-3" transform="translate(538.000000, 79.000000)">
                <rect id="Rectangle-path" transform="translate(130.392677, 118.023769) scale(-1, 1) translate(-130.392677, -118.023769) " x="113.437185" y="75.744859" width="33.9109841" height="84.5578209"></rect>
                <rect id="Rectangle-path" transform="translate(39.963386, 22.896142) scale(-1, 1) translate(-39.963386, -22.896142) " x="0.4005713" y="6.28649106" width="79.1256297" height="33.2193018"></rect>
                <path d="M144.522106,6.28649106 L117.91048,6.28649106 C90.8298624,6.28649106 90.8298624,33.4656327 90.8298624,33.4656327 L90.8298624,60.6447744 L85.1780317,60.6447744 L85.1780317,69.7046988 L130.392677,69.7046988 L130.392677,60.6447744 L124.740847,60.6447744 L124.740847,49.3201847 C124.740847,49.3201847 123.799909,39.5054771 133.21874,39.5054771 L144.522402,39.5054771 L144.522402,45.5453214 L153,45.5453214 L153,39.5054771 L153,6.28649106 L153,0.246646716 L144.522106,0.246646716 L144.522106,6.28649106 L144.522106,6.28649106 L144.522106,6.28649106 Z" id="Shape" transform="translate(119.089016, 34.975673) scale(-1, 1) translate(-119.089016, -34.975673) "></path>
            </g>
            <g id="Group-4" transform="translate(648.000000, 459.000000)">
                <rect id="Rectangle-path" transform="translate(22.607323, 42.976231) scale(1, -1) translate(-22.607323, -42.976231) " x="5.65183069" y="0.6973201" width="33.9109841" height="84.5578209"></rect>
                <path d="M59.3440745,97.3351455 L32.7324482,97.3351455 C5.65183069,97.3351455 5.65183069,124.514287 5.65183069,124.514287 L5.65183069,151.693429 L-2.27373675e-13,151.693429 L-2.27373675e-13,160.753353 L45.2146455,160.753353 L45.2146455,151.693429 L39.5628148,151.693429 L39.5628148,140.368839 C39.5628148,140.368839 38.6218774,130.554132 48.0407086,130.554132 L59.34437,130.554132 L59.34437,136.593976 L67.8219683,136.593976 L67.8219683,130.554132 L67.8219683,97.3351455 L67.8219683,91.2953012 L59.3440745,91.2953012 L59.3440745,97.3351455 L59.3440745,97.3351455 L59.3440745,97.3351455 Z" id="Shape" transform="translate(33.910984, 126.024327) scale(1, -1) translate(-33.910984, -126.024327) "></path>
            </g>
            <g id="Group-6" transform="translate(650.000000, 247.000000)">
                <path d="M40.1439377,45.5950506 C37.8486106,45.5470791 1.0471342,45.5369778 -1.7315161,45.5950506 L-20.4783841,45.5950506 L-20.4783841,41.1898586 L-27.5013464,41.1898586 L-27.5013464,78.1724648 L-20.4783841,78.1724648 L-20.4783841,73.6750234 L58.8908057,73.6750234 L58.8908057,78.1724648 L65.9137682,78.1724648 L65.9137682,41.1898586 L58.8908057,41.1898586 L58.8908057,45.5950506 L40.1439377,45.5950506 L40.1439377,45.5950506 Z" id="Shape" transform="translate(19.206211, 59.681162) rotate(90.000000) translate(-19.206211, -59.681162) "></path>
                <rect id="Rectangle-path" transform="translate(19.206072, 115.851119) rotate(90.000000) translate(-19.206072, -115.851119) " x="15.6945908" y="97.3596771" width="7.02296232" height="36.9828841"></rect>
                <rect id="Rectangle-path" transform="translate(19.206072, 3.511481) rotate(90.000000) translate(-19.206072, -3.511481) " x="15.6945908" y="-14.9799609" width="7.02296232" height="36.9828841"></rect>
                <path d="M41.6301536,150.06607 C39.2556773,150.014791 1.18518455,150.003993 -1.68928135,150.06607 L-21.0825931,150.06607 L-21.0825931,180.082593 L61.0234653,180.082593 L61.0234653,150.06607 L41.6301536,150.06607 L41.6301536,150.06607 Z" id="Shape" transform="translate(19.970436, 165.053029) rotate(90.000000) translate(-19.970436, -165.053029) "></path>
            </g>
            <g id="Group-5" transform="translate(327.000000, 83.000000)">
                <path d="M80.6188885,4.70767795 C78.3235614,4.65970649 41.522085,4.64960521 38.7434347,4.70767795 L19.9965667,4.70767795 L19.9965667,0.30248599 L12.9736044,0.30248599 L12.9736044,37.2850922 L19.9965667,37.2850922 L19.9965667,32.7876508 L99.3657565,32.7876508 L99.3657565,37.2850922 L106.388719,37.2850922 L106.388719,0.30248599 L99.3657565,0.30248599 L99.3657565,4.70767795 L80.6188885,4.70767795 L80.6188885,4.70767795 Z" id="Shape"></path>
                <rect id="Rectangle-path" x="112.339638" y="0.30248599" width="7.02296232" height="36.9828841"></rect>
                <rect id="Rectangle-path" x="-3.41060513e-13" y="0.30248599" width="7.02296232" height="36.9828841"></rect>
                <path d="M186.712747,3.04260509 C184.33827,2.99132525 146.267778,2.98052734 143.393312,3.04260509 L124,3.04260509 L124,33.0591277 L206.106058,33.0591277 L206.106058,3.04260509 L186.712747,3.04260509 L186.712747,3.04260509 Z" id="Shape"></path>
            </g>
        </g>
    </g>
</svg>
