<svg viewBox="0 0 2084 1159" version="1.1" xmlns="http://www.w3.org/2000/svg">
    <g id="Page-1" stroke="none" strokeWidth="1" fill="none" fillRule="evenodd">
        <g id="Group">
            <rect id="Rectangle-31" fill-opacity="0.659999967" fill="#F9F8F7" transform="translate(1042.000000, 579.500000) scale(-1, -1) translate(-1042.000000, -579.500000) " x="0" y="0" width="2084" height="1159"></rect>
            <path d="M1736.58828,717.792368 C1724.45465,717.792368 1714.58329,727.673421 1714.58329,739.818963 C1714.58329,751.964505 1724.45465,761.845558 1736.58828,761.845558 C1748.72191,761.845558 1758.59327,751.964505 1758.59327,739.818963 C1758.59327,727.673421 1748.72191,717.792368 1736.58828,717.792368 L1736.58828,717.792368 Z M1740.01612,746.365422 L1738.82136,750.252613 L1734.3552,750.252613 L1733.16044,746.365576 L1736.58828,733.498026 L1740.01612,746.365422 L1740.01612,746.365422 Z M1736.58828,759.526815 C1726.12085,759.526815 1717.53628,751.307726 1716.93466,740.978258 L1721.91829,740.978258 L1721.91829,738.659669 L1716.93466,738.659669 C1717.17772,734.485127 1718.72455,730.655591 1721.1729,727.573722 L1724.18781,730.591597 L1725.82576,728.952046 L1722.72035,725.843591 C1726.02527,722.557068 1730.48556,720.434478 1735.43012,720.146045 L1735.43012,725.134567 L1736.41919,725.134567 L1730.75101,746.411021 L1732.64452,752.571202 L1740.53204,752.571202 L1742.4257,746.411021 L1736.75737,725.134567 L1737.74644,725.134567 L1737.74644,720.146045 C1742.691,720.434632 1747.15129,722.557223 1750.45637,725.843436 L1747.35096,728.951891 L1748.9889,730.591443 L1752.00382,727.573568 C1754.45216,730.655436 1755.999,734.484972 1756.24206,738.659514 L1751.25827,738.659514 L1751.25827,740.978103 L1756.2419,740.978103 C1755.64028,751.307571 1747.05571,759.526815 1736.58828,759.526815 L1736.58828,759.526815 Z" id="Shape" fill-opacity="0.42" fill="#327F9E"></path>
            <path d="M1764.77011,739.818963 C1764.77011,724.264168 1752.12782,711.609464 1736.58828,711.609464 C1721.04874,711.609464 1708.40645,724.264168 1708.40645,739.818963 C1708.40645,753.810875 1718.62449,765.618212 1732.3417,767.698759 L1732.3417,778.848544 L1726.55092,778.848544 C1725.06091,778.848544 1723.84855,780.062093 1723.84855,781.553564 L1723.84855,784.258585 L1717.28566,784.258585 L1717.28566,786.577174 L1755.8909,786.577174 L1755.8909,784.258585 L1749.32801,784.258585 L1749.32801,781.553564 C1749.32801,780.062093 1748.11565,778.848544 1746.62564,778.848544 L1740.83486,778.848544 L1740.83486,767.698759 C1754.55207,765.618212 1764.77011,753.810875 1764.77011,739.818963 L1764.77011,739.818963 Z M1746.62564,781.167133 C1746.83489,781.167133 1747.0117,781.344118 1747.0117,781.553564 L1747.0117,784.258585 L1726.16486,784.258585 L1726.16486,781.553564 C1726.16486,781.344118 1726.34168,781.167133 1726.55092,781.167133 L1746.62564,781.167133 L1746.62564,781.167133 Z M1739.54482,765.53196 L1738.51854,765.64959 L1738.51854,778.848544 L1734.65802,778.848544 L1734.65802,765.64959 L1733.63174,765.531806 C1720.57143,764.032606 1710.72276,752.978501 1710.72276,739.818963 C1710.72276,725.542793 1722.32611,713.928053 1736.58828,713.928053 C1750.85045,713.928053 1762.4538,725.542793 1762.4538,739.818963 C1762.4538,752.978501 1752.60513,764.032606 1739.54482,765.53196 L1739.54482,765.53196 Z" id="Shape" fill-opacity="0.42" fill="#327F9E"></path>
            <path d="M1763.19218,791.025828 C1760.25416,790.964424 1713.14827,790.951495 1709.5916,791.025828 L1685.59561,791.025828 L1685.59561,785.387182 L1676.60621,785.387182 L1676.60621,832.724918 L1685.59561,832.724918 L1685.59561,826.968193 L1787.18817,826.968193 L1787.18817,832.724918 L1796.17756,832.724918 L1796.17756,785.387182 L1787.18817,785.387182 L1787.18817,791.025828 L1763.19218,791.025828 Z" id="Shape" fill-opacity="0.42" fill="#327F9E"></path>
            <rect id="Rectangle-path" fill-opacity="0.42" fill="#327F9E" x="1803.79474" y="785.387182" width="8.98939177" height="47.3380916"></rect>
            <rect id="Rectangle-path" fill-opacity="0.42" fill="#327F9E" x="1660" y="785.387182" width="8.98939177" height="47.3380916"></rect>
            <rect id="Rectangle-path" fill-opacity="0.42" fill="#327F9E" transform="translate(1524.607323, 713.976231) scale(1, -1) translate(-1524.607323, -713.976231) " x="1507.65183" y="671.69732" width="33.9109841" height="84.5578209"></rect>
            <rect id="Rectangle-path" fill-opacity="0.42" fill="#327F9E" transform="translate(1615.036614, 809.103858) scale(1, -1) translate(-1615.036614, -809.103858) " x="1575.4738" y="792.494207" width="79.1256297" height="33.2193018"></rect>
            <path d="M1534.73245,768.335146 C1507.65183,768.335146 1507.65183,795.514287 1507.65183,795.514287 L1507.65183,822.693429 L1502,822.693429 L1502,831.753353 L1547.21465,831.753353 L1547.21465,822.693429 L1541.56281,822.693429 L1541.56281,811.368839 C1541.56281,811.368839 1540.62188,801.554132 1550.04071,801.554132 L1561.34437,801.554132 L1561.34437,807.593976 L1569.82197,807.593976 L1569.82197,801.554132 L1569.82197,768.335146 L1569.82197,762.295301 L1561.34407,762.295301 L1561.34407,768.335146 L1534.73245,768.335146 Z" id="Shape" fill-opacity="0.42" fill="#327F9E" transform="translate(1535.910984, 797.024327) scale(1, -1) translate(-1535.910984, -797.024327) "></path>
            <rect id="Rectangle-path" fill-opacity="0.42" fill="#327F9E" transform="translate(1220.023769, 226.607323) scale(-1, 1) rotate(90.000000) translate(-1220.023769, -226.607323) " x="1203.06828" y="184.328412" width="33.9109841" height="84.5578209"></rect>
            <rect id="Rectangle-path" fill-opacity="0.42" fill="#327F9E" transform="translate(1124.896142, 317.036614) scale(-1, 1) rotate(90.000000) translate(-1124.896142, -317.036614) " x="1085.33333" y="300.426963" width="79.1256297" height="33.2193018"></rect>
            <path d="M1162.40876,209.221802 L1135.79714,209.221802 C1108.71652,209.221802 1108.71652,236.400944 1108.71652,236.400944 L1108.71652,263.580086 L1103.06469,263.580086 L1103.06469,272.64001 L1148.27933,272.64001 L1148.27933,263.580086 L1142.6275,263.580086 L1142.6275,252.255496 C1142.6275,252.255496 1141.68657,242.440788 1151.1054,242.440788 L1162.40906,242.440788 L1162.40906,248.480633 L1170.88666,248.480633 L1170.88666,242.440788 L1170.88666,209.221802 L1170.88666,203.181958 L1162.40876,203.181958 L1162.40876,209.221802 L1162.40876,209.221802 Z" id="Shape" fill-opacity="0.42" fill="#327F9E" transform="translate(1136.975673, 237.910984) scale(-1, 1) rotate(90.000000) translate(-1136.975673, -237.910984) "></path>
            <path d="M1546.14394,501.59505 C1543.84861,501.547079 1507.04713,501.536978 1504.26848,501.59505 L1485.52162,501.59505 L1485.52162,497.189858 L1478.49865,497.189858 L1478.49865,534.172465 L1485.52162,534.172465 L1485.52162,529.675023 L1564.89081,529.675023 L1564.89081,534.172465 L1571.91377,534.172465 L1571.91377,497.189858 L1564.89081,497.189858 L1564.89081,501.59505 L1546.14394,501.59505 Z" id="Shape" fill-opacity="0.42" fill="#327F9E" transform="translate(1525.206211, 515.681162) rotate(90.000000) translate(-1525.206211, -515.681162) "></path>
            <rect id="Rectangle-path" fill-opacity="0.42" fill="#327F9E" transform="translate(1525.206072, 571.851120) rotate(90.000000) translate(-1525.206072, -571.851120) " x="1521.69459" y="553.359678" width="7.02296232" height="36.9828841"></rect>
            <rect id="Rectangle-path" fill-opacity="0.42" fill="#327F9E" transform="translate(1525.206072, 459.511481) rotate(90.000000) translate(-1525.206072, -459.511481) " x="1521.69459" y="441.020039" width="7.02296232" height="36.9828841"></rect>
            <path d="M1349.10032,212.5576 C1346.80499,212.509628 1310.00351,212.499527 1307.22486,212.5576 L1288.47799,212.5576 L1288.47799,208.152408 L1281.45503,208.152408 L1281.45503,245.135014 L1288.47799,245.135014 L1288.47799,240.637573 L1367.84718,240.637573 L1367.84718,245.135014 L1374.87015,245.135014 L1374.87015,208.152408 L1367.84718,208.152408 L1367.84718,212.5576 L1349.10032,212.5576 Z" id="Shape" fill-opacity="0.42" fill="#327F9E" transform="translate(1328.162588, 226.643711) rotate(180.000000) translate(-1328.162588, -226.643711) "></path>
            <rect id="Rectangle-path" fill-opacity="0.42" fill="#327F9E" transform="translate(1271.992630, 226.643572) rotate(180.000000) translate(-1271.992630, -226.643572) " x="1268.48115" y="208.15213" width="7.02296232" height="36.9828841"></rect>
            <rect id="Rectangle-path" fill-opacity="0.42" fill="#327F9E" transform="translate(1384.332269, 226.643572) rotate(180.000000) translate(-1384.332269, -226.643572) " x="1380.82079" y="208.15213" width="7.02296232" height="36.9828841"></rect>
            <path d="M1547.63015,606.06607 C1545.25568,606.014791 1507.18518,606.003993 1504.31072,606.06607 L1484.91741,606.06607 L1484.91741,636.082593 L1567.02347,636.082593 L1567.02347,606.06607 L1547.63015,606.06607 Z" id="Shape" fill-opacity="0.42" fill="#327F9E" transform="translate(1525.970436, 621.053029) rotate(90.000000) translate(-1525.970436, -621.053029) "></path>
            <path d="M1545.052,395.847638 C1542.75667,395.796358 1505.9552,395.78556 1503.17655,395.847638 L1484.42968,395.847638 L1484.42968,425.86416 L1563.79887,425.86416 L1563.79887,395.847638 L1545.052,395.847638 Z" id="Shape" fill-opacity="0.42" fill="#327F9E" transform="translate(1524.114272, 410.834596) rotate(90.000000) translate(-1524.114272, -410.834596) "></path>
            <path d="M1984.61889,794.707678 C1982.32356,794.659706 1945.52208,794.649605 1942.74343,794.707678 L1923.99657,794.707678 L1923.99657,790.302486 L1916.9736,790.302486 L1916.9736,827.285092 L1923.99657,827.285092 L1923.99657,822.787651 L2003.36576,822.787651 L2003.36576,827.285092 L2010.38872,827.285092 L2010.38872,790.302486 L2003.36576,790.302486 L2003.36576,794.707678 L1984.61889,794.707678 Z" id="Shape" fill-opacity="0.42" fill="#327F9E"></path>
            <rect id="Rectangle-path" fill-opacity="0.42" fill="#327F9E" x="2016.33964" y="790.302486" width="7.02296232" height="36.9828841"></rect>
            <path d="M2069.55664,793.042605 C2067.98319,792.991325 2042.75576,792.980527 2040.85099,793.042605 L2028,793.042605 L2028,823.059128 L2082.40763,823.059128 L2082.40763,793.042605 L2069.55664,793.042605 Z" id="Shape" fill-opacity="0.42" fill="#327F9E"></path>
            <path d="M1879.77232,794.898769 C1877.477,794.847489 1840.67552,794.836691 1837.89687,794.898769 L1819.15,794.898769 L1819.15,824.915292 L1898.51919,824.915292 L1898.51919,794.898769 L1879.77232,794.898769 Z" id="Shape" fill-opacity="0.42" fill="#327F9E"></path>
            <rect id="Rectangle-path" fill-opacity="0.42" fill="#327F9E" transform="translate(1524.392677, 322.023769) scale(-1, 1) translate(-1524.392677, -322.023769) " x="1507.43719" y="279.744859" width="33.9109841" height="84.5578209"></rect>
            <rect id="Rectangle-path" fill-opacity="0.42" fill="#327F9E" transform="translate(1433.963386, 226.896142) scale(-1, 1) translate(-1433.963386, -226.896142) " x="1394.40057" y="210.286491" width="79.1256297" height="33.2193018"></rect>
            <path d="M1538.52211,210.286491 L1511.91048,210.286491 C1484.82986,210.286491 1484.82986,237.465633 1484.82986,237.465633 L1484.82986,264.644774 L1479.17803,264.644774 L1479.17803,273.704699 L1524.39268,273.704699 L1524.39268,264.644774 L1518.74085,264.644774 L1518.74085,253.320185 C1518.74085,253.320185 1517.79991,243.505477 1527.21874,243.505477 L1538.5224,243.505477 L1538.5224,249.545321 L1547,249.545321 L1547,243.505477 L1547,210.286491 L1547,204.246647 L1538.52211,204.246647 L1538.52211,210.286491 L1538.52211,210.286491 Z" id="Shape" fill-opacity="0.42" fill="#327F9E" transform="translate(1513.089016, 238.975673) scale(-1, 1) translate(-1513.089016, -238.975673) "></path>
            <path d="M1722.78131,496.361753 C1722.78131,456.39761 1755.13363,424 1795.04191,424 C1829.43361,424 1858.21086,448.060558 1865.5106,480.289243 C1872.31781,476.473307 1880.15862,474.288446 1888.51426,474.288446 C1914.58613,474.288446 1935.72148,495.453386 1935.72148,521.561753 C1935.72148,522.628685 1935.67374,523.684462 1935.60372,524.733865 C1954.9591,531.929084 1968.75333,550.585657 1968.75333,572.471713 C1968.75333,600.588048 1945.99237,623.381673 1917.91454,623.381673 L1736.60419,623.381673 C1701.50751,623.381673 1673.0557,594.89004 1673.0557,559.744223 C1673.0557,529.346614 1694.33985,503.931474 1722.79723,497.616733 C1722.79006,497.198406 1722.78131,496.780876 1722.78131,496.361753 Z" id="Shape" fill-opacity="0.46" fill="#7ECBEA"></path>
            <path d="M165.394935,178.574223 C165.388839,178.218645 165.381387,177.863745 165.381387,177.50749 C165.381387,143.537968 192.924581,116 226.900548,116 C256.179968,116 280.679516,136.451474 286.894161,163.845857 C292.689484,160.602311 299.364774,158.745179 306.478355,158.745179 C328.674677,158.745179 346.66829,176.735378 346.66829,198.92749 C346.66829,199.834382 346.627645,200.731793 346.568032,201.623785 C363.046258,207.739721 374.79,223.597809 374.79,242.200956 C374.79,266.099841 355.412419,285.474422 331.508323,285.474422 L177.149516,285.474422 C147.269903,285.474422 123.047419,261.256534 123.047419,231.38259 C123.047419,205.544622 141.16771,183.941753 165.394935,178.574223 L165.394935,178.574223 Z" id="Shape" fill-opacity="0.46" fill="#7ECBEA"></path>
            <path d="M657.543795,698.095999 C653.982433,698.095999 650.623508,698.904226 647.579877,700.278263 C641.496159,688.150807 628.981543,679.802332 614.487101,679.802332 C605.05964,679.802332 596.479375,683.354584 589.941187,689.156916 C578.945856,679.768424 564.422566,674 548.447807,674 C514.629296,674 487.184494,699.615284 486.487607,731.449919 C473.808006,737.334744 465,750.139855 465,765.031073 C465,782.240188 476.755479,796.671875 492.667482,800.823845 L664.019227,802 C683.846856,801.288942 699.715336,785.032797 699.715336,765.031073 C699.715336,750.749695 691.623955,738.379821 679.781428,732.199945 C681.102325,729.199333 681.867029,725.903669 681.867029,722.414678 C681.867535,708.984544 670.978483,698.095999 657.543795,698.095999 L657.543795,698.095999 Z" id="Shape" fill="#7ECBEA" opacity="0.422224813"></path>
            <rect id="Rectangle-path" fill-opacity="0.42" fill="#327F9E" transform="translate(767.976231, 945.392677) scale(1, -1) rotate(90.000000) translate(-767.976231, -945.392677) " x="751.020739" y="903.113767" width="33.9109841" height="84.5578209"></rect>
            <rect id="Rectangle-path" fill-opacity="0.42" fill="#327F9E" transform="translate(863.103858, 875.461200) scale(1, -1) rotate(90.000000) translate(-863.103858, -875.461200) " x="844.038857" y="858.85155" width="38.1300011" height="33.2193018"></rect>
            <path d="M876.457418,905.399834 L849.845791,905.399834 C822.765174,905.399834 822.765174,932.578976 822.765174,932.578976 L822.765174,959.758117 L817.113343,959.758117 L817.113343,968.818042 L862.327989,968.818042 L862.327989,959.758117 L856.676158,959.758117 L856.676158,948.433528 C856.676158,948.433528 855.73522,938.61882 865.154052,938.61882 L876.457713,938.61882 L876.457713,944.658665 L884.935311,944.658665 L884.935311,938.61882 L884.935311,905.399834 L884.935311,899.35999 L876.457418,899.35999 L876.457418,905.399834 L876.457418,905.399834 Z" id="Shape" fill-opacity="0.42" fill="#327F9E" transform="translate(851.024327, 934.089016) scale(1, -1) rotate(90.000000) translate(-851.024327, -934.089016) "></path>
            <path d="M188.33146,385.701108 L176.730525,385.701108 L176.730525,371.378649 L165.185019,371.378649 L165.185019,362.636863 C170.862193,362.525541 176.54221,362.169169 182.239281,361.559211 C188.529368,357.980197 188.528658,355.475634 182.239281,351.896975 C176.54221,351.286661 170.861838,350.931 165.185019,350.819679 L165.185019,348.135507 L157.59911,348.135507 L157.59911,350.819679 C151.922291,350.931 146.241919,351.286661 140.544848,351.896975 C134.255116,355.475634 134.255116,357.980197 140.544848,361.559211 C146.241919,362.169169 151.922291,362.525897 157.59911,362.636863 L157.59911,371.378649 L146.053604,371.378649 L146.053604,385.701108 L134.452669,385.701108 L134.452669,394.017523 L188.33146,394.017523 L188.33146,385.701108 L188.33146,385.701108 L188.33146,385.701108 Z M153.296638,378.629149 L169.487136,378.629149 L169.487136,385.701463 L153.296638,385.701463 L153.296638,378.629149 L153.296638,378.629149 L153.296638,378.629149 Z" id="Shape" fill-opacity="0.42" fill="#327F9E"></path>
            <path d="M212.188168,433.4916 L188.192177,433.4916 C184.635505,433.417267 181.763874,430.503338 181.763874,426.925391 L181.763874,417.570801 C181.763874,413.94484 184.709765,410.996057 188.331104,410.996057 L188.331104,409.940811 L188.331104,406.732395 L188.331104,401.624396 L134.452669,401.624396 L134.452669,406.732395 L134.452669,409.940811 L134.452669,410.996057 C138.074009,410.996057 141.0199,413.94484 141.0199,417.570801 L141.0199,426.925391 C141.0199,430.503338 138.148269,433.417267 134.591596,433.4916 L110.595605,433.4916 L110.595605,427.852954 L101.606214,427.852954 L101.606214,475.19069 L110.595605,475.19069 L110.595605,469.433965 L212.188168,469.433965 L212.188168,475.19069 L221.17756,475.19069 L221.17756,427.852954 L212.188168,427.852954 L212.188168,433.4916 L212.188168,433.4916 L212.188168,433.4916 Z" id="Shape" fill-opacity="0.42" fill="#327F9E"></path>
            <rect id="Rectangle-path" fill-opacity="0.42" fill="#327F9E" x="228.794737" y="427.852954" width="8.98939177" height="47.3380916"></rect>
            <rect id="Rectangle-path" fill-opacity="0.42" fill="#327F9E" x="85" y="427.852954" width="8.98939177" height="47.3380916"></rect>
            <rect id="Rectangle-path" fill-opacity="0.42" fill="#327F9E" transform="translate(671.392677, 545.023769) scale(-1, 1) translate(-671.392677, -545.023769) " x="654.437185" y="502.744859" width="33.9109841" height="84.5578209"></rect>
            <rect id="Rectangle-path" fill-opacity="0.42" fill="#327F9E" transform="translate(580.963386, 449.896142) scale(-1, 1) translate(-580.963386, -449.896142) " x="541.400571" y="433.286491" width="79.1256297" height="33.2193018"></rect>
            <path d="M685.522106,433.286491 L658.91048,433.286491 C631.829862,433.286491 631.829862,460.465633 631.829862,460.465633 L631.829862,487.644774 L626.178032,487.644774 L626.178032,496.704699 L671.392677,496.704699 L671.392677,487.644774 L665.740847,487.644774 L665.740847,476.320185 C665.740847,476.320185 664.799909,466.505477 674.21874,466.505477 L685.522402,466.505477 L685.522402,472.545321 L694,472.545321 L694,466.505477 L694,433.286491 L694,427.246647 L685.522106,427.246647 L685.522106,433.286491 L685.522106,433.286491 Z" id="Shape" fill-opacity="0.42" fill="#327F9E" transform="translate(660.089016, 461.975673) scale(-1, 1) translate(-660.089016, -461.975673) "></path>
            <rect id="Rectangle-path" fill-opacity="0.42" fill="#327F9E" transform="translate(673.607323, 849.976231) scale(1, -1) translate(-673.607323, -849.976231) " x="656.651831" y="807.69732" width="33.9109841" height="84.5578209"></rect>
            <path d="M710.344074,904.335146 L683.732448,904.335146 C656.651831,904.335146 656.651831,931.514287 656.651831,931.514287 L656.651831,958.693429 L651,958.693429 L651,967.753353 L696.214646,967.753353 L696.214646,958.693429 L690.562815,958.693429 L690.562815,947.368839 C690.562815,947.368839 689.621877,937.554132 699.040709,937.554132 L710.34437,937.554132 L710.34437,943.593976 L718.821968,943.593976 L718.821968,937.554132 L718.821968,904.335146 L718.821968,898.295301 L710.344074,898.295301 L710.344074,904.335146 L710.344074,904.335146 Z" id="Shape" fill-opacity="0.42" fill="#327F9E" transform="translate(684.910984, 933.024327) scale(1, -1) translate(-684.910984, -933.024327) "></path>
            <path d="M60.7177298,438.898769 C58.5380577,438.847489 23.5909027,438.836691 20.9522607,438.898769 L3.1499939,438.898769 L3.1499939,468.915292 L78.5199966,468.915292 L78.5199966,438.898769 L60.7177298,438.898769 Z" id="Shape" fill-opacity="0.42" fill="#327F9E"></path>
            <path d="M693.143938,640.59505 C690.848611,640.547079 654.047134,640.536978 651.268484,640.59505 L632.521616,640.59505 L632.521616,636.189858 L625.498654,636.189858 L625.498654,673.172465 L632.521616,673.172465 L632.521616,668.675023 L711.890806,668.675023 L711.890806,673.172465 L718.913768,673.172465 L718.913768,636.189858 L711.890806,636.189858 L711.890806,640.59505 L693.143938,640.59505 Z" id="Shape" fill-opacity="0.42" fill="#327F9E" transform="translate(672.206211, 654.681162) rotate(90.000000) translate(-672.206211, -654.681162) "></path>
            <rect id="Rectangle-path" fill-opacity="0.42" fill="#327F9E" transform="translate(672.206072, 710.851120) rotate(90.000000) translate(-672.206072, -710.851120) " x="668.694591" y="692.359678" width="7.02296232" height="36.9828841"></rect>
            <rect id="Rectangle-path" fill-opacity="0.42" fill="#327F9E" transform="translate(672.206072, 598.511481) rotate(90.000000) translate(-672.206072, -598.511481) " x="668.694591" y="580.020039" width="7.02296232" height="36.9828841"></rect>
            <path d="M694.630154,745.06607 C692.255677,745.014791 654.185184,745.003993 651.310719,745.06607 L631.917407,745.06607 L631.917407,775.082593 L714.023465,775.082593 L714.023465,745.06607 L694.630154,745.06607 Z" id="Shape" fill-opacity="0.42" fill="#327F9E" transform="translate(672.970436, 760.053029) rotate(90.000000) translate(-672.970436, -760.053029) "></path>
            <path d="M410.618888,435.707678 C408.323561,435.659706 371.522085,435.649605 368.743435,435.707678 L349.996567,435.707678 L349.996567,431.302486 L342.973604,431.302486 L342.973604,468.285092 L349.996567,468.285092 L349.996567,463.787651 L429.365757,463.787651 L429.365757,468.285092 L436.388719,468.285092 L436.388719,431.302486 L429.365757,431.302486 L429.365757,435.707678 L410.618888,435.707678 Z" id="Shape" fill-opacity="0.42" fill="#327F9E"></path>
            <rect id="Rectangle-path" fill-opacity="0.42" fill="#327F9E" x="442.339638" y="431.302486" width="7.02296232" height="36.9828841"></rect>
            <rect id="Rectangle-path" fill-opacity="0.42" fill="#327F9E" x="330" y="431.302486" width="7.02296232" height="36.9828841"></rect>
            <path d="M516.712747,434.042605 C514.33827,433.991325 476.267778,433.980527 473.393312,434.042605 L454,434.042605 L454,464.059128 L536.106058,464.059128 L536.106058,434.042605 L516.712747,434.042605 Z" id="Shape" fill-opacity="0.42" fill="#327F9E"></path>
            <path d="M305.772323,435.898769 C303.476996,435.847489 266.67552,435.836691 263.89687,435.898769 L245.150002,435.898769 L245.150002,465.915292 L324.519191,465.915292 L324.519191,435.898769 L305.772323,435.898769 Z" id="Shape" fill-opacity="0.42" fill="#327F9E"></path>
            <rect id="Rectangle-path" fill-opacity="0.42" fill="#327F9E" x="1904" y="790.302486" width="7.02296232" height="36.9828841"></rect>
        </g>
    </g>
</svg>
