<?xml version="1.0" encoding="UTF-8" standalone="no"?>
<svg width="296px" height="200px" viewBox="0 0 296 200" version="1.1" xmlns="http://www.w3.org/2000/svg" xmlns:xlink="http://www.w3.org/1999/xlink">
    <!-- Generator: Sketch 3.8.1 (29687) - http://www.bohemiancoding.com/sketch -->
    <title>Shape</title>
    <desc>Created with Sketch.</desc>
    <defs></defs>
    <g id="Page-1" stroke="none" stroke-width="1" fill="none" fill-rule="evenodd">
        <path d="M49.9881939,73.6167331 C49.9810326,73.1984064 49.9722799,72.7808765 49.9722799,72.361753 C49.9722799,32.3976096 82.3246025,0 122.232882,0 C156.624581,0 185.401828,24.0605578 192.70157,56.289243 C199.508774,52.4733068 207.349592,50.2884462 215.705226,50.2884462 C241.777097,50.2884462 262.912452,71.4533865 262.912452,97.561753 C262.912452,98.6286853 262.86471,99.6844622 262.794688,100.733865 C282.150065,107.929084 295.944301,126.585657 295.944301,148.471713 C295.944301,176.588048 273.183334,199.381673 245.105506,199.381673 L63.7951616,199.381673 C28.6984735,199.381673 0.246667,170.89004 0.246667,135.744223 C0.246667,105.346614 21.5308176,79.9314741 49.9881939,73.6167331 L49.9881939,73.6167331 L49.9881939,73.6167331 Z" id="Shape" fill="#7ECBEA" transform="translate(148.095484, 99.690837) scale(-1, 1) translate(-148.095484, -99.690837) "></path>
    </g>
</svg>