<?xml version="1.0" encoding="UTF-8" standalone="no"?>
<svg width="232px" height="133px" viewBox="0 0 232 133" version="1.1" xmlns="http://www.w3.org/2000/svg" xmlns:xlink="http://www.w3.org/1999/xlink">
    <!-- Generator: Sketch 3.8.1 (29687) - http://www.bohemiancoding.com/sketch -->
    <title>Group 7</title>
    <desc>Created with Sketch.</desc>
    <defs></defs>
    <g id="Page-1" stroke="none" stroke-width="1" fill="none" fill-rule="evenodd">
        <g id="Group-11" transform="translate(-927.000000, -1411.000000)">
            <g id="Group-8" transform="translate(323.000000, 1321.000000)">
                <g id="Group-7" transform="translate(604.000000, 90.000000)">
                    <g id="Group-3" transform="translate(51.082569, 8.512000)">
                        <ellipse id="Oval-1" fill="#FFFFFF" cx="64.9174312" cy="34.58" rx="28.733945" ry="27.132"></ellipse>
                        <g id="Group-2" fill="#474543">
                            <g id="Group">
                                <path d="M65.2366972,69.7984 C84.3926606,69.7984 99.9302752,54.264 99.9302752,35.112 C99.9302752,15.96 84.3926606,0.532 65.2366972,0.532 C46.0807339,0.532 30.5431193,16.0664 30.5431193,35.112 C30.5431193,54.1576 46.0807339,69.7984 65.2366972,69.7984 L65.2366972,69.7984 Z M65.2366972,9.576 C79.2844037,9.576 90.7779817,21.0672 90.7779817,35.112 C90.7779817,49.1568 79.2844037,60.648 65.2366972,60.648 C51.1889908,60.648 39.6954128,49.1568 39.6954128,35.112 C39.6954128,21.0672 51.1889908,9.576 65.2366972,9.576 L65.2366972,9.576 Z" id="Shape"></path>
                                <path d="M5.2146789,123.956 L125.684404,123.956 C128.238532,123.956 130.26055,121.9344 130.26055,119.3808 C130.26055,95.4408 110.785321,75.8632 86.733945,75.8632 L44.1651376,75.8632 C20.2201835,75.8632 0.63853211,95.3344 0.63853211,119.3808 C0.63853211,121.9344 2.66055046,123.956 5.2146789,123.956 L5.2146789,123.956 Z M44.1651376,85.0136 L86.733945,85.0136 C104.187156,85.0136 118.554128,97.9944 120.788991,114.8056 L10.1100917,114.8056 C12.3449541,98.1008 26.7119266,85.0136 44.1651376,85.0136 L44.1651376,85.0136 Z" id="Shape"></path>
                            </g>
                        </g>
                    </g>
                    <g id="Group-3">
                        <ellipse id="Oval-1" fill="#FFFFFF" cx="42.2227195" cy="22.4622222" rx="18.6887447" ry="17.6242051"></ellipse>
                        <g id="Group-2" fill="#474543">
                            <g id="Group">
                                <path d="M42.4303722,45.3391316 C54.8895353,45.3391316 64.995301,35.2484103 64.995301,22.8077949 C64.995301,10.3671795 54.8895353,0.34557265 42.4303722,0.34557265 C29.9712091,0.34557265 19.8654434,10.436294 19.8654434,22.8077949 C19.8654434,35.1792957 29.9712091,45.3391316 42.4303722,45.3391316 L42.4303722,45.3391316 Z M42.4303722,6.22030769 C51.5670918,6.22030769 59.0425897,13.6846769 59.0425897,22.8077949 C59.0425897,31.9309128 51.5670918,39.3952821 42.4303722,39.3952821 C33.2936526,39.3952821 25.8181547,31.9309128 25.8181547,22.8077949 C25.8181547,13.6846769 33.2936526,6.22030769 42.4303722,6.22030769 L42.4303722,6.22030769 Z" id="Shape"></path>
                                <path d="M3.39166107,80.5184274 L81.7459536,80.5184274 C83.4071754,80.5184274 84.7223092,79.2052513 84.7223092,77.5465026 C84.7223092,61.9957333 72.0554934,49.2786598 56.4123219,49.2786598 L28.7252928,49.2786598 C13.1513389,49.2786598 0.415305437,61.9266188 0.415305437,77.5465026 C0.415305437,79.2052513 1.73043932,80.5184274 3.39166107,80.5184274 L3.39166107,80.5184274 Z M28.7252928,55.2225094 L56.4123219,55.2225094 C67.7640039,55.2225094 77.1083762,63.6544821 78.5619453,74.5745778 L6.57566943,74.5745778 C8.02923846,63.7235966 17.3736108,55.2225094 28.7252928,55.2225094 L28.7252928,55.2225094 Z" id="Shape"></path>
                            </g>
                        </g>
                    </g>
                    <g id="Group-3" transform="translate(146.862385, 0.000000)">
                        <ellipse id="Oval-1" fill="#FFFFFF" cx="42.2227195" cy="22.4622222" rx="18.6887447" ry="17.6242051"></ellipse>
                        <g id="Group-2" fill="#474543">
                            <g id="Group">
                                <path d="M42.4303722,45.3391316 C54.8895353,45.3391316 64.995301,35.2484103 64.995301,22.8077949 C64.995301,10.3671795 54.8895353,0.34557265 42.4303722,0.34557265 C29.9712091,0.34557265 19.8654434,10.436294 19.8654434,22.8077949 C19.8654434,35.1792957 29.9712091,45.3391316 42.4303722,45.3391316 L42.4303722,45.3391316 Z M42.4303722,6.22030769 C51.5670918,6.22030769 59.0425897,13.6846769 59.0425897,22.8077949 C59.0425897,31.9309128 51.5670918,39.3952821 42.4303722,39.3952821 C33.2936526,39.3952821 25.8181547,31.9309128 25.8181547,22.8077949 C25.8181547,13.6846769 33.2936526,6.22030769 42.4303722,6.22030769 L42.4303722,6.22030769 Z" id="Shape"></path>
                                <path d="M3.39166107,80.5184274 L81.7459536,80.5184274 C83.4071754,80.5184274 84.7223092,79.2052513 84.7223092,77.5465026 C84.7223092,61.9957333 72.0554934,49.2786598 56.4123219,49.2786598 L28.7252928,49.2786598 C13.1513389,49.2786598 0.415305437,61.9266188 0.415305437,77.5465026 C0.415305437,79.2052513 1.73043932,80.5184274 3.39166107,80.5184274 L3.39166107,80.5184274 Z M28.7252928,55.2225094 L56.4123219,55.2225094 C67.7640039,55.2225094 77.1083762,63.6544821 78.5619453,74.5745778 L6.57566943,74.5745778 C8.02923846,63.7235966 17.3736108,55.2225094 28.7252928,55.2225094 L28.7252928,55.2225094 Z" id="Shape"></path>
                            </g>
                        </g>
                    </g>
                </g>
            </g>
        </g>
    </g>
</svg>