<?xml version="1.0" encoding="UTF-8" standalone="no"?>
<svg width="79px" height="79px" viewBox="0 0 79 79" version="1.1" xmlns="http://www.w3.org/2000/svg" xmlns:xlink="http://www.w3.org/1999/xlink">
    <!-- Generator: Sketch 3.8.1 (29687) - http://www.bohemiancoding.com/sketch -->
    <title>Layer_1_59_</title>
    <desc>Created with Sketch.</desc>
    <defs></defs>
    <g id="Page-1" stroke="none" stroke-width="1" fill="none" fill-rule="evenodd">
        <g id="Group-11" transform="translate(-1933.000000, -2468.000000)" fill="#FFFFFF">
            <g id="Footer" transform="translate(0.000000, 2405.000000)">
                <g id="Layer_1_59_" transform="translate(1933.000000, 63.000000)">
                    <path d="M53.8911667,31.9642778 C55.4623889,30.9943333 56.5113333,29.6776667 57.0204444,27.9967222 C55.4887222,28.8130556 53.9613889,29.3660556 52.4340556,29.6776667 C51.0647222,28.203 49.3267222,27.4525 47.2463889,27.4525 C45.2099444,27.4525 43.4938889,28.1678889 42.0894444,29.5547778 C40.6981667,30.9504444 39.9915556,32.6533333 39.9915556,34.6371111 C39.9915556,35.2383889 40.0661667,35.7782222 40.2197778,36.2346667 C34.2157778,36.024 29.2519444,33.5398889 25.3370556,28.7472222 C24.6743333,29.9190556 24.3407778,31.1128333 24.3407778,32.3461111 C24.3407778,34.8828889 25.4116667,36.893 27.5446667,38.3720556 C26.3289444,38.2711111 25.2580556,37.9595 24.3407778,37.4547778 C24.3407778,39.2673889 24.8718333,40.7815556 25.9427222,42.1157778 C27.0092222,43.4324444 28.3873333,44.2751111 30.0638889,44.6306111 C29.4538333,44.7886111 28.8130556,44.8632222 28.1547222,44.8632222 C27.5402778,44.8632222 27.1145556,44.8105556 26.8556111,44.7008333 C27.3120556,46.1798889 28.1547222,47.3736667 29.3748333,48.2909444 C30.5905556,49.2126111 31.995,49.6953889 33.575,49.7392778 C30.9811667,51.7801111 28.0055,52.7851667 24.6436111,52.7851667 C23.8185,52.7851667 23.2391667,52.7763889 22.8880556,52.7105556 C26.1972778,54.8567222 29.8839444,55.9276111 33.9524444,55.9276111 C38.1262778,55.9276111 41.8173333,54.8698889 45.0212222,52.7544444 C48.2251111,50.6521667 50.5995,48.0583333 52.1180556,44.9992778 C53.6453889,41.949 54.4046667,38.7714444 54.4046667,35.4578333 L54.4046667,34.5405556 C55.8793333,33.4301667 57.0775,32.1793333 57.9947778,30.7924444 C56.6868889,31.3761667 55.3131667,31.7667778 53.8911667,31.9642778 L53.8911667,31.9642778 Z" id="Shape"></path>
                    <path d="M39.5,79 C28.5716667,79 19.1575,75.0938889 11.5164444,67.387 C3.87538889,59.7020556 0,50.3186111 0,39.5 C0,28.5804444 3.87977778,19.1618889 11.5296111,11.5208333 C19.1662778,3.87977778 28.5760556,0 39.5,0 C50.323,0 59.7064444,3.87538889 67.387,11.5164444 C75.0938889,19.1618889 79,28.5804444 79,39.5 C79,50.3186111 75.0982778,59.7064444 67.3957778,67.4001667 C59.7108333,75.0938889 50.3273889,79 39.5,79 L39.5,79 Z M39.5,8.77777778 C30.8714444,8.77777778 23.7526667,11.7051667 17.7398889,17.7311111 C11.7051667,23.7526667 8.77777778,30.8714444 8.77777778,39.5 C8.77777778,48.032 11.7095556,55.1332222 17.7442778,61.2030556 C23.7658333,67.2728889 30.8802222,70.2222222 39.5,70.2222222 C48.0276111,70.2222222 55.1244444,67.2685 61.1898889,61.1942778 C67.2685,55.1200556 70.2222222,48.0188333 70.2222222,39.5 C70.2222222,30.8846111 67.2728889,23.7658333 61.2030556,17.7442778 C55.1332222,11.7095556 48.0363889,8.77777778 39.5,8.77777778 L39.5,8.77777778 Z" id="Shape"></path>
                </g>
            </g>
        </g>
    </g>
</svg>