<?xml version="1.0" encoding="UTF-8" standalone="no"?>
<svg width="79px" height="77px" viewBox="0 0 79 77" version="1.1" xmlns="http://www.w3.org/2000/svg" xmlns:xlink="http://www.w3.org/1999/xlink">
    <!-- Generator: Sketch 3.8.1 (29687) - http://www.bohemiancoding.com/sketch -->
    <title>github-logo</title>
    <desc>Created with Sketch.</desc>
    <defs></defs>
    <g id="Page-1" stroke="none" stroke-width="1" fill="none" fill-rule="evenodd">
        <g id="Group-11" transform="translate(-1794.000000, -2468.000000)" fill="#FFFFFF">
            <g id="Footer" transform="translate(0.000000, 2405.000000)">
                <g id="github-logo" transform="translate(1794.000000, 63.000000)">
                    <path d="M73.6251207,19.7181481 C70.096574,13.6723986 65.3103257,8.88597039 59.2651162,5.3577836 C53.2190068,1.82941686 46.6184579,0.0656833713 39.4587904,0.0656833713 C32.3000228,0.0656833713 25.6973144,1.82995672 19.6524647,5.3577836 C13.6067153,8.88579043 8.82064692,13.6723986 5.29210023,19.7181481 C1.76409339,25.7637175 0,32.3655262 0,39.5233941 C0,48.1216173 2.50856492,55.8533599 7.52695444,62.7206014 C12.5448041,69.5883827 19.027123,74.3406196 26.9733713,76.9778519 C27.8983371,77.1495285 28.5830638,77.028779 29.0282711,76.6186629 C29.4736583,76.2080068 29.696082,75.693697 29.696082,75.0778929 C29.696082,74.975139 29.6872642,74.050713 29.6701686,72.3035353 C29.652533,70.5563576 29.6442551,69.0321435 29.6442551,67.7316128 L28.4624943,67.936041 C27.7090251,68.0740661 26.7585057,68.1325513 25.6109362,68.1159954 C24.4639066,68.0999795 23.2731481,67.9797699 22.0402802,67.7562665 C20.8068724,67.5347426 19.6596629,67.0209727 18.5977517,66.2160364 C17.5363804,65.4111002 16.7829112,64.357467 16.3375239,63.0567563 L15.823754,61.8744556 C15.4813007,61.0873349 14.9421572,60.2129362 14.2056036,59.2544989 C13.4690501,58.2951617 12.7242187,57.6448064 11.9707494,57.3023531 L11.6110205,57.0448383 C11.3713212,56.8737016 11.1488975,56.6672938 10.9432096,56.4277745 C10.7377016,56.1882551 10.5838405,55.9485558 10.4810866,55.7084966 C10.3781526,55.4682574 10.463451,55.2712073 10.7378815,55.1166264 C11.0123121,54.9620456 11.5082665,54.8870046 12.2279043,54.8870046 L13.2550843,55.0405057 C13.9401708,55.1778109 14.7875763,55.5879271 15.7983804,56.2733736 C16.8086446,56.9582802 17.6391344,57.8486948 18.2900296,58.9442574 C19.0782301,60.3489818 20.0278497,61.4193508 21.1415877,62.1559043 C22.254426,62.8924579 23.3764419,63.2601048 24.5065558,63.2601048 C25.6366697,63.2601048 26.6127426,63.1744465 27.4351344,63.0040296 C28.2566264,62.832713 29.0273713,62.5751982 29.7470091,62.2329248 C30.0552711,59.9370661 30.8945786,58.1733326 32.2642118,56.9404647 C30.3120661,56.7353166 28.5569704,56.4263349 26.9980251,56.0154989 C25.4399795,55.604123 23.8299271,54.936492 22.1689476,54.0108064 C20.5070683,53.0863804 19.1284374,51.938451 18.0326948,50.5689977 C16.9367722,49.1988246 16.0373599,47.4 15.3357175,45.1741435 C14.6337153,42.9473872 14.2826241,40.3787175 14.2826241,37.4674146 C14.2826241,33.322164 15.6358815,29.794697 18.3418565,26.8830342 C17.0742574,23.7665831 17.1939271,20.2729476 18.7012255,16.4024875 C19.694574,16.0938656 21.1676811,16.325467 23.1198269,17.0958519 C25.0723326,17.8665968 26.5018907,18.5268497 27.4099408,19.0742711 C28.3179909,19.6215125 29.0455467,20.0852551 29.5936879,20.4613599 C32.7797813,19.5711253 36.0677289,19.125918 39.4584305,19.125918 C42.8491321,19.125918 46.1377995,19.5711253 49.3240729,20.4613599 L51.2763986,19.2288519 C52.6114806,18.4064601 54.1880615,17.6528109 56.0023622,16.9677244 C57.8177426,16.2829977 59.2059112,16.0944055 60.1654282,16.4030273 C61.7061982,20.2736674 61.8435034,23.767123 60.5755444,26.883574 C63.2813394,29.7952369 64.6351367,33.3236036 64.6351367,37.4679544 C64.6351367,40.3792574 64.2827859,42.9560251 63.5818633,45.199877 C62.880041,47.4440888 61.9728907,49.2411139 60.8600524,50.5947312 C59.7459544,51.9481686 58.3585057,53.0871002 56.6975262,54.0113462 C55.0361868,54.9363121 53.4255945,55.6039431 51.867549,56.0153189 C50.3087836,56.4266948 48.5536879,56.7358565 46.6015421,56.9413645 C48.3820114,58.4821344 49.272426,60.9142187 49.272426,64.2365376 L49.272426,75.0764533 C49.272426,75.6922574 49.4865718,76.2063872 49.9152232,76.6172232 C50.3433349,77.0273394 51.0194237,77.1480888 51.9443895,76.9762323 C59.8917175,74.3393599 66.3740364,69.5869431 71.3917062,62.7191617 C76.408836,55.8519203 78.9183007,48.1201777 78.9183007,39.5219544 C78.9165011,32.3649863 77.151508,25.7637175 73.6251207,19.7181481 L73.6251207,19.7181481 Z" id="Shape"></path>
                </g>
            </g>
        </g>
    </g>
</svg>