<?xml version="1.0" encoding="UTF-8" standalone="no"?>
<svg width="38px" height="64px" viewBox="0 0 38 64" version="1.1" xmlns="http://www.w3.org/2000/svg" xmlns:xlink="http://www.w3.org/1999/xlink">
    <!-- Generator: Sketch 3.8.1 (29687) - http://www.bohemiancoding.com/sketch -->
    <title>Group</title>
    <desc>Created with Sketch.</desc>
    <defs></defs>
    <g id="Page-1" stroke="none" strokeWidth="1" fill="none" fillRule="evenodd">
        <g id="Group-11" transform="translate(-95.000000, -80.000000)" stroke="#FFFFFF">
            <g id="Group-5">
                <g id="Group-2" transform="translate(97.000000, 78.000000)">
                    <g id="workflow-logo-white">
                        <g id="Page-1">
                            <g id="Group-2">
                                <g id="Group" transform="translate(0.000000, 4.000000)">
                                    <path d="M32.2615541,39.5996712 C30.2718431,33.0851734 25.2253433,22.469601 20.6816479,7.43043647 C19.621849,3.19181391 18.8014981,-1.02909355 18.8014981,0.224170153 C17.8614232,4.14061924 4.29535515,28.3782514 0.86801764,39.5996712 C-2.55931987,50.8210911 4.46836267,59.9178493 16.5647859,59.9178493 C28.6612092,59.9178493 35.6888917,50.8210911 32.2615541,39.5996712 L32.2615541,39.5996712 Z" id="Oval-1" strokeWidth="4"></path>
                                    <path d="M5.95380774,41.9843342 C5.95380774,41.9843342 6.26716604,46.0574413 6.89388265,47.6240209 C7.52059925,49.1906005 8.30399501,50.1305483 10.1841448,51.54047 C10.3787774,51.6864246 12.2668827,52.8776011 14.1011236,53.2637076 C15.1943659,53.4938344 15.8245943,53.7336815 17.8614232,53.5770235 C20.4106812,53.3809532 21.3083645,53.1070496 21.3083645,53.1070496" id="Line" strokeWidth="3"></path>
                                </g>
                            </g>
                        </g>
                    </g>
                </g>
            </g>
        </g>
    </g>
</svg>