<?xml version="1.0" encoding="UTF-8" standalone="no"?>
<svg width="201px" height="201px" viewBox="0 0 201 201" version="1.1" xmlns="http://www.w3.org/2000/svg" xmlns:xlink="http://www.w3.org/1999/xlink">
    <!-- Generator: Sketch 3.8.1 (29687) - http://www.bohemiancoding.com/sketch -->
    <title>Group 2</title>
    <desc>Created with Sketch.</desc>
    <defs></defs>
    <g id="Page-1" stroke="none" strokeWidth="1" fill="none" fillRule="evenodd">
        <g id="Group-2">
            <g id="donation" transform="translate(38.080078, 5.085883)" fill="#FFFFFF">
                <g id="Group-2" transform="translate(30.228516, 26.994303)">
                    <ellipse id="Oval-1" cx="31.6025391" cy="54.7710495" rx="26.1064453" ry="21.1259762"></ellipse>
                    <polygon id="Triangle-1" points="22.1806641 7.04199208 44.3613281 51.2500534 0 51.2500534"></polygon>
                    <polygon id="Triangle-1" points="28.8544922 0.391221782 51.0351563 44.5992832 6.67382812 44.5992832"></polygon>
                    <polygon id="Triangle-1" points="32.7802734 0 54.9609375 44.2080614 10.5996094 44.2080614"></polygon>
                    <polygon id="Triangle-1" points="38.2763672 5.47710495 60.4570313 49.6851663 16.0957031 49.6851663"></polygon>
                    <polygon id="Triangle-1" points="42.2021484 6.65077029 64.3828125 50.8588317 20.0214844 50.8588317"></polygon>
                    <polygon id="Triangle-1" points="41.0244141 10.9542099 63.2050781 55.1622713 18.84375 55.1622713"></polygon>
                </g>
                <g id="Group-4">
                    <ellipse id="Oval-2" cx="15.703125" cy="29.9284663" rx="14.5253906" ry="12.3234861"></ellipse>
                    <rect id="Rectangle-1" x="0" y="12.9103188" width="30.2285156" height="12.519097"></rect>
                    <polygon id="Triangle-7" points="15.8994141 0 25.5175781 14.0839842 6.28125 14.0839842"></polygon>
                </g>
                <g id="Group-3" transform="translate(94.611328, 0.000000)">
                    <ellipse id="Oval-2" cx="15.703125" cy="29.9284663" rx="14.5253906" ry="12.3234861"></ellipse>
                    <rect id="Rectangle-1" x="0" y="12.9103188" width="30.2285156" height="12.519097"></rect>
                    <polygon id="Triangle-7" points="15.8994141 0 25.5175781 14.0839842 6.28125 14.0839842"></polygon>
                </g>
            </g>
            <g id="Group" fill="#474543">
                <path d="M53.5967285,40.4523323 C53.8546523,40.4523323 54.1161094,40.4222082 54.3771738,40.3623513 C56.6886738,39.811511 59.5898262,37.3245141 60.2195215,34.4998929 C60.6215215,32.7006639 59.4991406,30.8642688 57.6936738,30.4636577 C55.8811406,30.0696974 54.1125762,31.1447748 53.7105762,32.9440038 C53.5931953,33.2209888 53.053793,33.741705 52.7491523,33.8852834 C50.9939355,34.3426217 49.9182715,36.1187686 50.3406855,37.8882647 C50.7089238,39.4206804 52.0825547,40.4523323 53.5967285,40.4523323 L53.5967285,40.4523323 L53.5967285,40.4523323 Z" id="Shape"></path>
                <path d="M53.5998691,53.8059054 C64.6850977,53.8059054 73.6998691,44.8222796 73.6998691,33.7753501 C73.6998691,15.6876022 56.4272168,1.70963919 55.6903477,1.12202407 C54.4674668,0.14709939 52.7322715,0.14709939 51.50625,1.12202407 C50.7725215,1.71003041 33.4998691,15.6879935 33.4998691,33.7753501 C33.4998691,44.8222796 42.5150332,53.8059054 53.5998691,53.8059054 L53.5998691,53.8059054 L53.5998691,53.8059054 Z M53.5998691,8.2097891 C57.8342168,12.2393735 66.9997383,22.2945557 66.9997383,33.7753501 C66.9997383,41.1401002 60.9897598,47.1289232 53.5998691,47.1289232 C46.2099785,47.1289232 40.2,41.1401002 40.2,33.7753501 C40.2,22.2945557 49.3655215,12.2393735 53.5998691,8.2097891 L53.5998691,8.2097891 L53.5998691,8.2097891 Z" id="Shape"></path>
                <path d="M135.155619,134.746171 C134.834098,135.023156 127.299738,141.673535 127.299738,153.958682 L127.299738,170.650941 C127.299738,172.493596 128.800564,173.989237 130.649607,173.989237 C132.49865,173.989237 133.999477,172.493596 133.999477,170.650941 L133.999477,153.958682 C133.999477,144.831477 139.336184,139.977198 139.71777,139.626663 L163.167639,116.257812 C164.497693,114.932353 166.155943,114.164776 167.837355,114.097877 C169.455563,114.034499 171.013313,114.635415 172.235801,115.85368 C173.458682,117.072336 174.068355,118.587929 173.998084,120.236929 C173.930953,121.912923 173.160715,123.565444 171.83066,124.890512 L155.081707,141.583163 C153.771674,142.88867 153.771674,144.998529 155.081707,146.303645 C156.391348,147.609152 158.508914,147.609152 159.818555,146.303645 L176.568686,129.614906 C179.091393,127.100915 180.558457,123.866293 180.695859,120.507654 C180.839936,116.998786 179.516555,113.667141 176.973826,111.133198 C174.427957,108.599254 171.10125,107.290618 167.563729,107.424024 C164.193445,107.564082 160.95075,109.022948 158.431576,111.536939 L135.155619,134.746171 L135.155619,134.746171 L135.155619,134.746171 Z" id="Shape"></path>
                <path d="M147.400131,53.8059054 C158.485359,53.8059054 167.500131,44.8222796 167.500131,33.7753501 C167.500131,15.6876022 150.227479,1.70963919 149.490609,1.12202407 C148.267729,0.14709939 146.532533,0.14709939 145.306512,1.12202407 C144.572783,1.70963919 127.300131,15.6876022 127.300131,33.7753501 C127.300131,44.8222796 136.314902,53.8059054 147.400131,53.8059054 L147.400131,53.8059054 L147.400131,53.8059054 Z M147.400131,8.2097891 C151.634479,12.2393735 160.8,22.2945557 160.8,33.7753501 C160.8,41.1401002 154.790021,47.1289232 147.400131,47.1289232 C140.009848,47.1289232 134.000262,41.1397089 134.000262,33.7753501 C133.999869,22.2945557 143.165783,12.2393735 147.400131,8.2097891 L147.400131,8.2097891 L147.400131,8.2097891 Z" id="Shape"></path>
                <path d="M147.396598,40.4523323 C147.654521,40.4523323 147.915979,40.4222082 148.177043,40.3623513 C150.488543,39.811511 153.389695,37.3245141 154.019391,34.4998929 C154.421391,32.7006639 153.29901,30.8642688 151.493543,30.4636577 C149.691217,30.0696974 147.912445,31.1447748 147.510445,32.9440038 C147.393064,33.2209888 146.853662,33.741705 146.549021,33.8852834 C144.793805,34.3426217 143.718141,36.1187686 144.140555,37.8882647 C144.508793,39.4206804 145.882424,40.4523323 147.396598,40.4523323 L147.396598,40.4523323 L147.396598,40.4523323 Z" id="Shape"></path>
                <path d="M177.550131,180.666219 L123.949869,180.666219 C122.100826,180.666219 120.6,182.16186 120.6,184.004514 L120.6,197.358088 C120.6,199.200742 122.100826,200.696383 123.949869,200.696383 C125.798912,200.696383 127.299738,199.200742 127.299738,197.358088 L127.299738,187.34281 L174.199869,187.34281 L174.199869,197.358088 C174.199869,199.200742 175.700695,200.696383 177.549738,200.696383 C179.398781,200.696383 180.899607,199.200742 180.899607,197.358088 L180.899607,184.004514 C180.9,182.16186 179.399174,180.666219 177.550131,180.666219 L177.550131,180.666219 L177.550131,180.666219 Z" id="Shape"></path>
                <path d="M133.999869,80.5134427 C133.999869,55.9294572 104.000619,29.0716906 102.727488,27.939886 C101.457891,26.8182532 99.5417168,26.8182532 98.2721191,27.939886 C96.9989883,29.0716906 66.9997383,55.929066 66.9997383,80.5134427 C66.9997383,98.9216013 82.0280215,113.897571 100.499607,113.897571 C118.971193,113.897571 133.999869,98.9216013 133.999869,80.5134427 L133.999869,80.5134427 L133.999869,80.5134427 Z M100.5,107.22098 C85.7229668,107.22098 73.6998691,95.2394218 73.6998691,80.5134427 C73.6998691,62.5027656 93.706043,41.6005682 100.5,35.020609 C107.297098,41.5939174 127.300131,62.4757713 127.300131,80.5134427 C127.300131,95.2394218 115.277033,107.22098 100.5,107.22098 L100.5,107.22098 L100.5,107.22098 Z" id="Shape"></path>
                <path d="M20.3045332,120.507654 C20.4419355,123.866293 21.909,127.100915 24.431707,129.611385 L41.1818379,146.303645 C42.4918711,147.609152 44.6090449,147.609152 45.9186855,146.303645 C47.2283262,144.998138 47.2283262,142.888279 45.9186855,141.583163 L29.1685547,124.887773 C27.8385,123.565835 27.0682617,121.913314 27.0011309,120.23732 C26.9308594,118.58832 27.5405332,117.072336 28.7634141,115.854071 C29.9862949,114.635415 31.5102832,114.03802 33.1618594,114.098268 C34.8436641,114.165167 36.5019141,114.932744 37.8315762,116.258203 L61.4357285,139.774153 C61.6634238,139.97798 67.0001309,144.831869 67.0001309,153.959073 L67.0001309,170.650941 C67.0001309,172.493596 68.500957,173.989237 70.35,173.989237 C72.199043,173.989237 73.6998691,172.493596 73.6998691,170.650941 L73.6998691,153.958682 C73.6998691,141.673144 66.1659023,135.023156 66.018293,134.906181 L42.5684238,111.53733 C40.04925,109.023339 36.8065547,107.564473 33.4362715,107.424415 C29.8952168,107.291009 26.572043,108.599646 24.0261738,111.133589 C21.4834453,113.667533 20.160457,116.999177 20.3045332,120.507654 L20.3045332,120.507654 L20.3045332,120.507654 Z" id="Shape"></path>
                <path d="M187.600131,60.4828875 C180.209848,60.4828875 174.200262,66.4721018 174.200262,73.8364606 L174.200262,100.266622 C174.200262,102.109276 175.701088,103.604917 177.550131,103.604917 C179.399174,103.604917 180.9,102.109276 180.9,100.266622 L180.9,73.8364606 C180.9,70.1542812 183.904793,67.1594784 187.600131,67.1594784 C191.295469,67.1594784 194.300262,70.15389 194.300262,73.8364606 L194.300262,123.912849 C194.300262,133.160158 188.993783,137.873989 188.581969,138.244867 L161.781445,164.952405 C160.471412,166.257912 160.471412,168.367771 161.781445,169.672887 C162.434695,170.32388 163.292479,170.650941 164.149869,170.650941 C165.007652,170.650941 165.865043,170.32388 166.518293,169.672887 L193.11075,143.155874 C193.432271,142.88554 201,136.37874 201,123.91324 L201,73.8368518 C201,66.4721018 194.990021,60.4828875 187.600131,60.4828875 L187.600131,60.4828875 L187.600131,60.4828875 Z" id="Shape"></path>
                <path d="M36.8501309,170.650941 C37.7079141,170.650941 38.5653047,170.32388 39.2185547,169.672887 C40.5285879,168.36738 40.5285879,166.257521 39.2185547,164.952405 L12.2307715,138.071556 C12.0030762,137.874772 6.69973828,133.160549 6.69973828,123.91324 L6.69973828,73.8368518 C6.69973828,70.1546724 9.70453125,67.1598697 13.3998691,67.1598697 C17.0948145,67.1598697 20.1,70.1542812 20.1,73.8368518 L20.1,100.267013 C20.1,102.109668 21.6008262,103.605308 23.4498691,103.605308 C25.2989121,103.605308 26.7997383,102.109668 26.7997383,100.267013 L26.7997383,73.8368518 C26.7997383,66.4721018 20.7897598,60.4832787 13.3998691,60.4832787 C6.00997852,60.4828875 0,66.4721018 0,73.8364606 L0,123.912849 C0,136.378348 7.56772852,142.885149 7.68157617,142.965349 L34.481707,169.672887 C35.134957,170.32388 35.9923477,170.650941 36.8501309,170.650941 L36.8501309,170.650941 L36.8501309,170.650941 Z" id="Shape"></path>
                <path d="M77.0501309,180.666219 L23.4498691,180.666219 C21.6008262,180.666219 20.1,182.16186 20.1,184.004514 L20.1,197.358088 C20.1,199.200742 21.6008262,200.696383 23.4498691,200.696383 C25.2989121,200.696383 26.7997383,199.200742 26.7997383,197.358088 L26.7997383,187.34281 L73.6998691,187.34281 L73.6998691,197.358088 C73.6998691,199.200742 75.2006953,200.696383 77.0497383,200.696383 C78.8987813,200.696383 80.3996074,199.200742 80.3996074,197.358088 L80.3996074,184.004514 C80.4,182.16186 78.8991738,180.666219 77.0501309,180.666219 L77.0501309,180.666219 L77.0501309,180.666219 Z" id="Shape"></path>
                <path d="M117.250131,77.1751473 C115.401088,77.1751473 113.900262,78.6707882 113.900262,80.5134427 C113.900262,83.4612989 112.955719,86.2554048 111.173414,88.5925638 C110.051033,90.0580806 110.336045,92.1546381 111.809783,93.2696202 C112.416316,93.7304794 113.129631,93.9507373 113.833131,93.9507373 C114.844805,93.9507373 115.846664,93.5000498 116.503055,92.6354497 C119.183186,89.1265815 120.6,84.9369874 120.6,80.5134427 C120.6,78.6707882 119.099174,77.1751473 117.250131,77.1751473 L117.250131,77.1751473 L117.250131,77.1751473 Z" id="Shape"></path>
            </g>
        </g>
    </g>
</svg>