<svg viewBox="0 0 981 629" version="1.1" xmlns="http://www.w3.org/2000/svg">
    <g id="Page-1" stroke="none" strokeWidth="1" fill="none" fillRule="evenodd">
        <g id="Group-18" transform="translate(-1102.000000, -204.000000)">
            <g id="Group-16">
                <g id="Group-15">
                    <g id="Group-11">
                        <g id="Group-10">
                            <g id="Group-8">
                                <g id="Group-7" transform="translate(3.000000, 204.000000)">
                                    <g id="Group-17">
                                        <g id="Group-23" transform="translate(1099.000000, 0.000000)">
                                            <g id="Group-21" fill-opacity="0.42" fill="#327F9E">
                                                <g id="Group-4" transform="translate(558.000000, 507.000000)">
                                                    <path d="M76.5882805,6.79236816 C64.4546511,6.79236816 54.5832892,16.6734214 54.5832892,28.8189632 C54.5832892,40.964505 64.4546511,50.8455582 76.5882805,50.8455582 C88.7219099,50.8455582 98.5932718,40.964505 98.5932718,28.8189632 C98.5932718,16.6734214 88.7219099,6.79236816 76.5882805,6.79236816 L76.5882805,6.79236816 Z M80.0161177,35.3654218 L78.8213625,39.2526135 L74.3551986,39.2526135 L73.1604434,35.3655764 L76.5882805,22.498026 L80.0161177,35.3654218 L80.0161177,35.3654218 Z M76.5882805,48.5268147 C66.1208536,48.5268147 57.5362819,40.307726 56.9346577,29.9782577 L61.9182863,29.9782577 L61.9182863,27.6596687 L56.9346577,27.6596687 C57.1777163,23.4851266 58.7245514,19.6555905 61.1728962,16.5737221 L64.1878116,19.5915975 L65.8257551,17.9520459 L62.720349,14.843591 C66.025267,11.5570685 70.4855629,9.43447755 75.4301231,9.14604509 L75.4301231,14.1345665 L76.4191895,14.1345665 L70.7510126,35.4110207 L72.6445228,41.5712024 L80.5320382,41.5712024 L82.4257028,35.4110207 L76.7573715,14.1345665 L77.746438,14.1345665 L77.746438,9.14604509 C82.6909981,9.43463213 87.151294,11.557223 90.4563665,14.8434364 L87.3509604,17.9518914 L88.9889038,19.5914429 L92.0038193,16.5735675 C94.4521641,19.6554359 95.9989992,23.484972 96.2420578,27.6595142 L91.2582747,27.6595142 L91.2582747,29.9781031 L96.2419034,29.9781031 C95.6402792,40.3075715 87.0557074,48.5268147 76.5882805,48.5268147 L76.5882805,48.5268147 Z" id="Shape"></path>
                                                    <path d="M104.770111,28.8189632 C104.770111,13.2641682 92.1278193,0.609464286 76.5882805,0.609464286 C61.0487417,0.609464286 48.4064496,13.2641682 48.4064496,28.8189632 C48.4064496,42.8108747 58.6244866,54.6182116 72.3417033,56.6987588 L72.3417033,67.8485439 L66.5509161,67.8485439 C65.0609079,67.8485439 63.8485487,69.0620933 63.8485487,70.5535643 L63.8485487,73.2585848 L57.2856566,73.2585848 L57.2856566,75.5771737 L95.8909045,75.5771737 L95.8909045,73.2585848 L89.3280123,73.2585848 L89.3280123,70.5535643 C89.3280123,69.0620933 88.1156531,67.8485439 86.625645,67.8485439 L80.8348578,67.8485439 L80.8348578,56.6987588 C94.5520745,54.6182116 104.770111,42.8108747 104.770111,28.8189632 L104.770111,28.8189632 Z M86.625645,70.1671328 C86.8348854,70.1671328 87.0116975,70.3441185 87.0116975,70.5535643 L87.0116975,73.2585848 L66.1648636,73.2585848 L66.1648636,70.5535643 C66.1648636,70.3441185 66.3416756,70.1671328 66.5509161,70.1671328 L86.625645,70.1671328 L86.625645,70.1671328 Z M79.5448248,54.5319601 L78.5185429,54.6495899 L78.5185429,67.8485439 L74.6580181,67.8485439 L74.6580181,54.6495899 L73.6317362,54.5318055 C60.5714264,53.0326059 50.7227645,41.9785012 50.7227645,28.8189632 C50.7227645,14.5427927 62.3261122,2.92805324 76.5882805,2.92805324 C90.8504489,2.92805324 102.453797,14.5427927 102.453797,28.8189632 C102.453797,41.9785012 92.6051346,53.0326059 79.5448248,54.5319601 L79.5448248,54.5319601 Z" id="Shape"></path>
                                                    <g id="pipe-valve" transform="translate(0.000000, 74.000000)">
                                                        <g id="Group">
                                                            <path d="M103.192177,6.02582777 C100.254159,5.9644243 53.1482688,5.95149467 49.5915964,6.02582777 L25.5956053,6.02582777 L25.5956053,0.387182068 L16.6062136,0.387182068 L16.6062136,47.724918 L25.5956053,47.724918 L25.5956053,41.968193 L127.188168,41.968193 L127.188168,47.724918 L136.17756,47.724918 L136.17756,0.387182068 L127.188168,0.387182068 L127.188168,6.02582777 L103.192177,6.02582777 Z" id="Shape"></path>
                                                            <rect id="Rectangle-path" x="143.794737" y="0.387182068" width="8.98939177" height="47.3380916"></rect>
                                                            <rect id="Rectangle-path" x="-1.69642078e-13" y="0.387182068" width="8.98939177" height="47.3380916"></rect>
                                                        </g>
                                                    </g>
                                                </g>
                                                <g id="pipes-tubes-angle" transform="translate(476.500000, 547.500000) scale(1, -1) translate(-476.500000, -547.500000) translate(400.000000, 467.000000)">
                                                    <g id="iconos_6_">
                                                        <rect id="Rectangle-path" x="5.65183069" y="75.744859" width="33.9109841" height="84.5578209"></rect>
                                                        <rect id="Rectangle-path" x="73.473799" y="6.28649106" width="79.1256297" height="33.2193018"></rect>
                                                        <path d="M32.7324482,6.28649106 C5.65183069,6.28649106 5.65183069,33.4656327 5.65183069,33.4656327 L5.65183069,60.6447744 L-2.20268248e-13,60.6447744 L-2.20268248e-13,69.7046988 L45.2146455,69.7046988 L45.2146455,60.6447744 L39.5628148,60.6447744 L39.5628148,49.3201847 C39.5628148,49.3201847 38.6218774,39.5054771 48.0407086,39.5054771 L59.34437,39.5054771 L59.34437,45.5453214 L67.8219683,45.5453214 L67.8219683,39.5054771 L67.8219683,6.28649106 L67.8219683,0.246646716 L59.3440745,0.246646716 L59.3440745,6.28649106 L32.7324482,6.28649106 Z" id="Shape"></path>
                                                    </g>
                                                </g>
                                                <g id="pipes-tubes-angle" transform="translate(80.500000, 76.500000) scale(-1, 1) rotate(90.000000) translate(-80.500000, -76.500000) translate(4.000000, -4.000000)">
                                                    <g id="iconos_6_" transform="translate(0.000000, 0.000000)">
                                                        <g id="Group-14">
                                                            <rect id="Rectangle-path" x="5.65183069" y="75.744859" width="33.9109841" height="84.5578209"></rect>
                                                            <rect id="Rectangle-path" x="73.473799" y="6.28649106" width="79.1256297" height="33.2193018"></rect>
                                                            <path d="M59.3440745,6.28649106 L32.7324482,6.28649106 C5.65183069,6.28649106 5.65183069,33.4656327 5.65183069,33.4656327 L5.65183069,60.6447744 L-2.06057393e-13,60.6447744 L-2.06057393e-13,69.7046988 L45.2146455,69.7046988 L45.2146455,60.6447744 L39.5628148,60.6447744 L39.5628148,49.3201847 C39.5628148,49.3201847 38.6218774,39.5054771 48.0407086,39.5054771 L59.34437,39.5054771 L59.34437,45.5453214 L67.8219683,45.5453214 L67.8219683,39.5054771 L67.8219683,6.28649106 L67.8219683,0.246646716 L59.3440745,0.246646716 L59.3440745,6.28649106 L59.3440745,6.28649106 Z" id="Shape"></path>
                                                        </g>
                                                    </g>
                                                </g>
                                                <g id="Group-5" transform="translate(303.500000, 231.500000) rotate(90.000000) translate(-303.500000, -231.500000) translate(75.000000, 93.000000)">
                                                    <g id="pipe-valve" transform="translate(249.000000, 0.000000)">
                                                        <g id="Group" transform="translate(-0.000000, -0.000000)">
                                                            <path d="M80.6188885,4.70767795 C78.3235614,4.65970649 41.522085,4.64960521 38.7434347,4.70767795 L19.9965667,4.70767795 L19.9965667,0.30248599 L12.9736044,0.30248599 L12.9736044,37.2850922 L19.9965667,37.2850922 L19.9965667,32.7876508 L99.3657565,32.7876508 L99.3657565,37.2850922 L106.388719,37.2850922 L106.388719,0.30248599 L99.3657565,0.30248599 L99.3657565,4.70767795 L80.6188885,4.70767795 Z" id="Shape"></path>
                                                            <rect id="Rectangle-path" x="112.339638" y="0.30248599" width="7.02296232" height="36.9828841"></rect>
                                                            <rect id="Rectangle-path" x="-3.54827279e-13" y="0.30248599" width="7.02296232" height="36.9828841"></rect>
                                                        </g>
                                                    </g>
                                                    <g id="pipe-valve" transform="translate(19.437500, 216.156250) rotate(90.000000) translate(-19.437500, -216.156250) translate(-40.562500, 197.156250)">
                                                        <g id="Group" transform="translate(-0.000000, -0.000000)">
                                                            <path d="M80.6188885,4.70767795 C78.3235614,4.65970649 41.522085,4.64960521 38.7434347,4.70767795 L19.9965667,4.70767795 L19.9965667,0.30248599 L12.9736044,0.30248599 L12.9736044,37.2850922 L19.9965667,37.2850922 L19.9965667,32.7876508 L99.3657565,32.7876508 L99.3657565,37.2850922 L106.388719,37.2850922 L106.388719,0.30248599 L99.3657565,0.30248599 L99.3657565,4.70767795 L80.6188885,4.70767795 Z" id="Shape"></path>
                                                            <rect id="Rectangle-path" x="112.339638" y="0.30248599" width="7.02296232" height="36.9828841"></rect>
                                                            <rect id="Rectangle-path" x="-3.54827279e-13" y="0.30248599" width="7.02296232" height="36.9828841"></rect>
                                                        </g>
                                                    </g>
                                                    <g id="pipe-valve" transform="translate(373.000000, 3.000000)">
                                                        <g id="Group" transform="translate(-0.000000, -0.000000)">
                                                            <path d="M62.7127467,0.04260509 C60.3382704,-0.00867474888 22.2677776,-0.0194726597 19.3933117,0.04260509 L-1.59071929e-13,0.04260509 L-1.59071929e-13,30.0591277 L82.1060584,30.0591277 L82.1060584,0.04260509 L62.7127467,0.04260509 Z" id="Shape"></path>
                                                        </g>
                                                    </g>
                                                    <path d="M224.772323,4.89876921 C222.476996,4.84748938 185.67552,4.83669147 182.89687,4.89876921 L164.150002,4.89876921 L164.150002,34.9152919 L243.519191,34.9152919 L243.519191,4.89876921 L224.772323,4.89876921 Z" id="Shape"></path>
                                                </g>
                                                <g id="Group-5" transform="translate(717.000000, 586.000000)">
                                                    <g id="pipe-valve" transform="translate(85.000000, 0.000000)">
                                                        <g id="Group" transform="translate(0.000000, -0.000000)">
                                                            <path d="M80.6188885,4.70767795 C78.3235614,4.65970649 41.522085,4.64960521 38.7434347,4.70767795 L19.9965667,4.70767795 L19.9965667,0.30248599 L12.9736044,0.30248599 L12.9736044,37.2850922 L19.9965667,37.2850922 L19.9965667,32.7876508 L99.3657565,32.7876508 L99.3657565,37.2850922 L106.388719,37.2850922 L106.388719,0.30248599 L99.3657565,0.30248599 L99.3657565,4.70767795 L80.6188885,4.70767795 Z" id="Shape"></path>
                                                            <rect id="Rectangle-path" x="112.339638" y="0.30248599" width="7.02296232" height="36.9828841"></rect>
                                                            <rect id="Rectangle-path" x="-4.40980585e-13" y="0.30248599" width="7.02296232" height="36.9828841"></rect>
                                                        </g>
                                                    </g>
                                                    <g id="pipe-valve" transform="translate(209.000000, 3.000000)">
                                                        <g id="Group" transform="translate(0.000000, -0.000000)">
                                                            <path d="M41.5566394,0.04260509 C39.9831912,-0.00867474888 14.7557562,-0.0194726597 12.8509897,0.04260509 L1.94923186e-14,0.04260509 L1.94923186e-14,30.0591277 L54.4076291,30.0591277 L54.4076291,0.04260509 L41.5566394,0.04260509 Z" id="Shape"></path>
                                                        </g>
                                                    </g>
                                                    <path d="M60.7723233,4.89876921 C58.4769963,4.84748938 21.6755198,4.83669147 18.8968695,4.89876921 L0.150001526,4.89876921 L0.150001526,34.9152919 L79.5191913,34.9152919 L79.5191913,4.89876921 L60.7723233,4.89876921 Z" id="Shape"></path>
                                                </g>
                                                <g id="pipes-tubes-angle" transform="translate(368.500000, 80.500000) scale(-1, 1) translate(-368.500000, -80.500000) translate(292.000000, 0.000000)">
                                                    <g id="iconos_6_">
                                                        <rect id="Rectangle-path" x="5.65183069" y="75.744859" width="33.9109841" height="84.5578209"></rect>
                                                        <rect id="Rectangle-path" x="73.473799" y="6.28649106" width="79.1256297" height="33.2193018"></rect>
                                                        <path d="M59.3440745,6.28649106 L32.7324482,6.28649106 C5.65183069,6.28649106 5.65183069,33.4656327 5.65183069,33.4656327 L5.65183069,60.6447744 L-2.34479103e-13,60.6447744 L-2.34479103e-13,69.7046988 L45.2146455,69.7046988 L45.2146455,60.6447744 L39.5628148,60.6447744 L39.5628148,49.3201847 C39.5628148,49.3201847 38.6218774,39.5054771 48.0407086,39.5054771 L59.34437,39.5054771 L59.34437,45.5453214 L67.8219683,45.5453214 L67.8219683,39.5054771 L67.8219683,6.28649106 L67.8219683,0.246646716 L59.3440745,0.246646716 L59.3440745,6.28649106 L59.3440745,6.28649106 Z" id="Shape"></path>
                                                    </g>
                                                </g>
                                            </g>
                                            <g id="Group" transform="translate(571.000000, 220.000000)" fill-opacity="0.46" fill="#7ECBEA">
                                                <path d="M49.7813118,72.361753 C49.7813118,32.3976096 82.1336344,0 122.041914,0 C156.433613,0 185.21086,24.0605578 192.510602,56.289243 C199.317806,52.4733068 207.158624,50.2884462 215.514258,50.2884462 C241.586129,50.2884462 262.721484,71.4533865 262.721484,97.561753 C262.721484,98.6286853 262.673742,99.6844622 262.60372,100.733865 C281.959097,107.929084 295.753333,126.585657 295.753333,148.471713 C295.753333,176.588048 272.992366,199.381673 244.914538,199.381673 L63.6041935,199.381673 C28.5075054,199.381673 0.0556989247,170.89004 0.0556989247,135.744223 C0.0556989247,105.346614 21.3398495,79.9314741 49.7972258,73.6167331 C49.7900645,73.1984064 49.7813118,72.7808765 49.7813118,72.361753 Z" id="Shape"></path>
                                            </g>
                                        </g>
                                    </g>
                                </g>
                            </g>
                        </g>
                    </g>
                </g>
            </g>
        </g>
    </g>
</svg>
