<svg viewBox="0 0 883 852" version="1.1" xmlns="http://www.w3.org/2000/svg">
    <g id="Page-1" stroke="none" strokeWidth="1" fill="none" fillRule="evenodd">
        <g id="Group-18" transform="translate(-3.000000, -116.000000)">
            <g id="Group-16">
                <g id="Group-15">
                    <g id="Group-11">
                        <g id="Group-10">
                            <g id="Group-8">
                                <g id="Group-22" transform="translate(3.000000, 116.000000)">
                                    <g id="hail" opacity="0.41954291" transform="translate(120.000000, 0.000000)" fill="#7ECBEA">
                                        <g id="Group">
                                            <path d="M42.3949355,62.5742231 C42.3888387,62.2186454 42.3813871,61.863745 42.3813871,61.50749 C42.3813871,27.5379681 69.9245806,0 103.900548,0 C133.179968,0 157.679516,20.4514741 163.894161,47.8458566 C169.689484,44.6023108 176.364774,42.7451793 183.478355,42.7451793 C205.674677,42.7451793 223.66829,60.7353785 223.66829,82.92749 C223.66829,83.8343825 223.627645,84.7317928 223.568032,85.6237849 C240.046258,91.7397211 251.79,107.597809 251.79,126.200956 C251.79,150.099841 232.412419,169.474422 208.508323,169.474422 L54.1495161,169.474422 C24.2699032,169.474422 0.0474193548,145.256534 0.0474193548,115.38259 C0.0474193548,89.5446215 18.1677097,67.941753 42.3949355,62.5742231 L42.3949355,62.5742231 Z" id="Shape"></path>
                                        </g>
                                    </g>
                                    <path d="M654.543795,582.095999 C650.982433,582.095999 647.623508,582.904226 644.579877,584.278263 C638.496159,572.150807 625.981543,563.802332 611.487101,563.802332 C602.05964,563.802332 593.479375,567.354584 586.941187,573.156916 C575.945856,563.768424 561.422566,558 545.447807,558 C511.629296,558 484.184494,583.615284 483.487607,615.449919 C470.808006,621.334744 462,634.139855 462,649.031073 C462,666.240188 473.755479,680.671875 489.667482,684.823845 L661.019227,686 C680.846856,685.288942 696.715336,669.032797 696.715336,649.031073 C696.715336,634.749695 688.623955,622.379821 676.781428,616.199945 C678.102325,613.199333 678.867029,609.903669 678.867029,606.414678 C678.867535,592.984544 667.978483,582.095999 654.543795,582.095999 L654.543795,582.095999 Z" id="Shape" fill="#7ECBEA" opacity="0.422224813"></path>
                                    <g id="Group-20" transform="translate(0.000000, 232.000000)" fill-opacity="0.42" fill="#327F9E">
                                        <g id="iconos_6_" transform="translate(802.500000, 564.000000) scale(1, -1) rotate(90.000000) translate(-802.500000, -564.000000) translate(746.500000, 483.500000)">
                                            <rect id="Rectangle-path" x="5.65183069" y="75.744859" width="33.9109841" height="84.5578209"></rect>
                                            <rect id="Rectangle-path" x="73.473799" y="6.28649106" width="38.1300011" height="33.2193018"></rect>
                                            <path d="M59.3440745,6.28649106 L32.7324482,6.28649106 C5.65183069,6.28649106 5.65183069,33.4656327 5.65183069,33.4656327 L5.65183069,60.6447744 L-2.34479103e-13,60.6447744 L-2.34479103e-13,69.7046988 L45.2146455,69.7046988 L45.2146455,60.6447744 L39.5628148,60.6447744 L39.5628148,49.3201847 C39.5628148,49.3201847 38.6218774,39.5054771 48.0407086,39.5054771 L59.34437,39.5054771 L59.34437,45.5453214 L67.8219683,45.5453214 L67.8219683,39.5054771 L67.8219683,6.28649106 L67.8219683,0.246646716 L59.3440745,0.246646716 L59.3440745,6.28649106 L59.3440745,6.28649106 Z" id="Shape"></path>
                                        </g>
                                        <g id="pipe-valve" transform="translate(82.000000, 0.000000)">
                                            <g id="Group" transform="translate(-0.000000, 0.000000)">
                                                <path d="M103.33146,37.7011077 L91.7305251,37.7011077 L91.7305251,23.3786488 L80.1850193,23.3786488 L80.1850193,14.636863 C85.8621933,14.5255411 91.5422098,14.1691691 97.2392812,13.5592109 C103.529368,9.98019662 103.528658,7.47563354 97.2392812,3.89697496 C91.5422098,3.28666109 85.861838,2.93100033 80.1850193,2.81967851 L80.1850193,0.13550675 L72.5991097,0.13550675 L72.5991097,2.81967851 C66.922291,2.93100033 61.2419192,3.28666109 55.5448477,3.89697496 C49.255116,7.47563354 49.255116,9.98019662 55.5448477,13.5592109 C61.2419192,14.1691691 66.922291,14.5258968 72.5991097,14.636863 L72.5991097,23.3786488 L61.0536039,23.3786488 L61.0536039,37.7011077 L49.4526694,37.7011077 L49.4526694,46.0175232 L103.33146,46.0175232 L103.33146,37.7011077 L103.33146,37.7011077 L103.33146,37.7011077 Z M68.2966375,30.6291491 L84.4871361,30.6291491 L84.4871361,37.7014633 L68.2966375,37.7014633 L68.2966375,30.6291491 L68.2966375,30.6291491 L68.2966375,30.6291491 Z" id="Shape"></path>
                                                <path d="M127.188168,85.4915998 L103.192177,85.4915998 C99.6355049,85.4172667 96.7638739,82.5033381 96.7638739,78.9253908 L96.7638739,69.5708015 C96.7638739,65.94484 99.7097651,62.9960566 103.331104,62.9960566 L103.331104,61.9408112 L103.331104,58.7323954 L103.331104,53.6243956 L49.4526694,53.6243956 L49.4526694,58.7323954 L49.4526694,61.9408112 L49.4526694,62.9960566 C53.0740086,62.9960566 56.0198998,65.94484 56.0198998,69.5708015 L56.0198998,78.9253908 C56.0198998,82.5033381 53.1482688,85.4172667 49.5915964,85.4915998 L25.5956053,85.4915998 L25.5956053,79.8529541 L16.6062136,79.8529541 L16.6062136,127.19069 L25.5956053,127.19069 L25.5956053,121.433965 L127.188168,121.433965 L127.188168,127.19069 L136.17756,127.19069 L136.17756,79.8529541 L127.188168,79.8529541 L127.188168,85.4915998 L127.188168,85.4915998 L127.188168,85.4915998 Z" id="Shape"></path>
                                                <rect id="Rectangle-path" x="143.794737" y="79.8529541" width="8.98939177" height="47.3380916"></rect>
                                                <rect id="Rectangle-path" x="-5.24913446e-13" y="79.8529541" width="8.98939177" height="47.3380916"></rect>
                                            </g>
                                        </g>
                                        <g id="pipes-tubes-angle" transform="translate(614.500000, 159.500000) scale(-1, 1) translate(-614.500000, -159.500000) translate(538.000000, 79.000000)">
                                            <g id="iconos_6_" transform="translate(-0.000000, 0.000000)">
                                                <rect id="Rectangle-path" x="5.65183069" y="75.744859" width="33.9109841" height="84.5578209"></rect>
                                                <rect id="Rectangle-path" x="73.473799" y="6.28649106" width="79.1256297" height="33.2193018"></rect>
                                                <path d="M59.3440745,6.28649106 L32.7324482,6.28649106 C5.65183069,6.28649106 5.65183069,33.4656327 5.65183069,33.4656327 L5.65183069,60.6447744 L-2.34479103e-13,60.6447744 L-2.34479103e-13,69.7046988 L45.2146455,69.7046988 L45.2146455,60.6447744 L39.5628148,60.6447744 L39.5628148,49.3201847 C39.5628148,49.3201847 38.6218774,39.5054771 48.0407086,39.5054771 L59.34437,39.5054771 L59.34437,45.5453214 L67.8219683,45.5453214 L67.8219683,39.5054771 L67.8219683,6.28649106 L67.8219683,0.246646716 L59.3440745,0.246646716 L59.3440745,6.28649106 L59.3440745,6.28649106 Z" id="Shape"></path>
                                            </g>
                                        </g>
                                        <g id="pipes-tubes-angle" transform="translate(682.000000, 539.500000) scale(1, -1) translate(-682.000000, -539.500000) translate(648.000000, 459.000000)">
                                            <g id="iconos_6_">
                                                <rect id="Rectangle-path" x="5.65183069" y="75.744859" width="33.9109841" height="84.5578209"></rect>
                                                <path d="M59.3440745,6.28649106 L32.7324482,6.28649106 C5.65183069,6.28649106 5.65183069,33.4656327 5.65183069,33.4656327 L5.65183069,60.6447744 L-2.34479103e-13,60.6447744 L-2.34479103e-13,69.7046988 L45.2146455,69.7046988 L45.2146455,60.6447744 L39.5628148,60.6447744 L39.5628148,49.3201847 C39.5628148,49.3201847 38.6218774,39.5054771 48.0407086,39.5054771 L59.34437,39.5054771 L59.34437,45.5453214 L67.8219683,45.5453214 L67.8219683,39.5054771 L67.8219683,6.28649106 L67.8219683,0.246646716 L59.3440745,0.246646716 L59.3440745,6.28649106 L59.3440745,6.28649106 Z" id="Shape"></path>
                                            </g>
                                        </g>
                                        <g id="Group" transform="translate(0.150002, 90.856164)">
                                            <path d="M57.5677283,0.04260509 C55.3880562,-0.00867474888 20.4409012,-0.0194726597 17.8022592,0.04260509 L-7.62939448e-06,0.04260509 L-7.62939448e-06,30.0591277 L75.3699951,30.0591277 L75.3699951,0.04260509 L57.5677283,0.04260509 Z" id="Shape"></path>
                                        </g>
                                        <g id="Group-3" transform="translate(669.000000, 350.500000) rotate(90.000000) translate(-669.000000, -350.500000) translate(565.500000, 331.500000)">
                                            <g id="pipe-valve">
                                                <g id="Group" transform="translate(-0.000000, -0.000000)">
                                                    <path d="M80.6188885,4.70767795 C78.3235614,4.65970649 41.522085,4.64960521 38.7434347,4.70767795 L19.9965667,4.70767795 L19.9965667,0.30248599 L12.9736044,0.30248599 L12.9736044,37.2850922 L19.9965667,37.2850922 L19.9965667,32.7876508 L99.3657565,32.7876508 L99.3657565,37.2850922 L106.388719,37.2850922 L106.388719,0.30248599 L99.3657565,0.30248599 L99.3657565,4.70767795 L80.6188885,4.70767795 Z" id="Shape"></path>
                                                    <rect id="Rectangle-path" x="112.339638" y="0.30248599" width="7.02296232" height="36.9828841"></rect>
                                                    <rect id="Rectangle-path" x="-3.54827279e-13" y="0.30248599" width="7.02296232" height="36.9828841"></rect>
                                                </g>
                                            </g>
                                            <g id="pipe-valve" transform="translate(124.000000, 3.000000)">
                                                <g id="Group" transform="translate(-0.000000, -0.000000)">
                                                    <path d="M62.7127467,0.04260509 C60.3382704,-0.00867474888 22.2677776,-0.0194726597 19.3933117,0.04260509 L-1.59071929e-13,0.04260509 L-1.59071929e-13,30.0591277 L82.1060584,30.0591277 L82.1060584,0.04260509 L62.7127467,0.04260509 Z" id="Shape"></path>
                                                </g>
                                            </g>
                                        </g>
                                        <g id="Group-5" transform="translate(242.000000, 83.000000)">
                                            <g id="pipe-valve" transform="translate(85.000000, 0.000000)">
                                                <g id="Group" transform="translate(-0.000000, -0.000000)">
                                                    <path d="M80.6188885,4.70767795 C78.3235614,4.65970649 41.522085,4.64960521 38.7434347,4.70767795 L19.9965667,4.70767795 L19.9965667,0.30248599 L12.9736044,0.30248599 L12.9736044,37.2850922 L19.9965667,37.2850922 L19.9965667,32.7876508 L99.3657565,32.7876508 L99.3657565,37.2850922 L106.388719,37.2850922 L106.388719,0.30248599 L99.3657565,0.30248599 L99.3657565,4.70767795 L80.6188885,4.70767795 Z" id="Shape"></path>
                                                    <rect id="Rectangle-path" x="112.339638" y="0.30248599" width="7.02296232" height="36.9828841"></rect>
                                                    <rect id="Rectangle-path" x="-3.54827279e-13" y="0.30248599" width="7.02296232" height="36.9828841"></rect>
                                                </g>
                                            </g>
                                            <g id="pipe-valve" transform="translate(209.000000, 3.000000)">
                                                <g id="Group" transform="translate(-0.000000, -0.000000)">
                                                    <path d="M62.7127467,0.04260509 C60.3382704,-0.00867474888 22.2677776,-0.0194726597 19.3933117,0.04260509 L-1.59071929e-13,0.04260509 L-1.59071929e-13,30.0591277 L82.1060584,30.0591277 L82.1060584,0.04260509 L62.7127467,0.04260509 Z" id="Shape"></path>
                                                </g>
                                            </g>
                                            <path d="M60.7723233,4.89876921 C58.4769963,4.84748938 21.6755198,4.83669147 18.8968695,4.89876921 L0.150001526,4.89876921 L0.150001526,34.9152919 L79.5191913,34.9152919 L79.5191913,4.89876921 L60.7723233,4.89876921 Z" id="Shape"></path>
                                        </g>
                                    </g>
                                </g>
                            </g>
                        </g>
                    </g>
                </g>
            </g>
        </g>
    </g>
</svg>
