<?xml version="1.0" encoding="UTF-8" standalone="no"?>
<svg width="162px" height="195px" viewBox="0 0 162 195" version="1.1" xmlns="http://www.w3.org/2000/svg" xmlns:xlink="http://www.w3.org/1999/xlink">
    <!-- Generator: Sketch 3.8.1 (29687) - http://www.bohemiancoding.com/sketch -->
    <title>Group 2</title>
    <desc>Created with Sketch.</desc>
    <defs></defs>
    <g id="Page-1" stroke="none" stroke-width="1" fill="none" fill-rule="evenodd">
        <g id="Group-11" transform="translate(-1525.000000, -1376.000000)">
            <g id="Group-8" transform="translate(323.000000, 1321.000000)">
                <g id="Group-2" transform="translate(1202.000000, 55.000000)">
                    <rect id="Rectangle-1" fill="#FFFFFF" x="5.52001953" y="61.5400391" width="98.1800003" height="133.309998" rx="24"></rect>
                    <g id="copy" fill="#474543">
                        <g id="Group">
                            <path d="M90.9968354,57.1681261 L13.414557,57.1681261 C6.13481013,57.1681261 0.222151899,63.0761821 0.222151899,70.3502627 L0.222151899,181.578809 C0.222151899,188.85289 6.13481013,194.760946 13.414557,194.760946 L90.9968354,194.760946 C98.2765823,194.760946 104.189241,188.85289 104.189241,181.578809 L104.189241,70.3502627 C104.155063,63.0761821 98.2424051,57.1681261 90.9968354,57.1681261 L90.9968354,57.1681261 Z M94.9272152,181.544658 C94.9272152,183.730298 93.15,185.50613 90.9626582,185.50613 L13.3803797,185.50613 C11.193038,185.50613 9.41582278,183.730298 9.41582278,181.544658 L9.41582278,70.3502627 C9.41582278,68.1646235 11.193038,66.3887916 13.3803797,66.3887916 L90.9626582,66.3887916 C93.15,66.3887916 94.9272152,68.1646235 94.9272152,70.3502627 L94.9272152,181.544658 L94.9272152,181.544658 Z" id="Shape"></path>
                            <path d="M120.662658,28.0035026 L43.0803797,28.0035026 C35.8006329,28.0035026 29.8879747,33.9115587 29.8879747,41.1856392 C29.8879747,43.7469352 31.9386076,45.795972 34.5018987,45.795972 C37.0651899,45.795972 39.1158228,43.7469352 39.1158228,41.1856392 C39.1158228,39 40.893038,37.2241681 43.0803797,37.2241681 L120.662658,37.2241681 C122.85,37.2241681 124.627215,39 124.627215,41.1856392 L124.627215,152.414186 C124.627215,154.599825 122.85,156.375657 120.662658,156.375657 C118.099367,156.375657 116.048734,158.424694 116.048734,160.985989 C116.048734,163.547285 118.099367,165.596322 120.662658,165.596322 C127.942405,165.596322 133.855063,159.688266 133.855063,152.414186 L133.855063,41.1856392 C133.855063,33.9115587 127.942405,28.0035026 120.662658,28.0035026 L120.662658,28.0035026 Z" id="Shape"></path>
                            <path d="M148.534177,0 L70.9518987,0 C63.6721519,0 57.7594937,5.90805604 57.7594937,13.1821366 C57.7594937,15.7434326 59.8101266,17.7924694 62.3734177,17.7924694 C64.9367089,17.7924694 66.9873418,15.7434326 66.9873418,13.1821366 C66.9873418,10.9964974 68.764557,9.2206655 70.9518987,9.2206655 L148.534177,9.2206655 C150.721519,9.2206655 152.498734,10.9964974 152.498734,13.1821366 L152.498734,124.410683 C152.498734,126.596322 150.721519,128.372154 148.534177,128.372154 C145.970886,128.372154 143.920253,130.421191 143.920253,132.982487 C143.920253,135.543783 145.970886,137.59282 148.534177,137.59282 C155.813924,137.59282 161.726582,131.684764 161.726582,124.410683 L161.726582,13.1821366 C161.726582,5.90805604 155.813924,0 148.534177,0 L148.534177,0 Z" id="Shape"></path>
                        </g>
                    </g>
                </g>
            </g>
        </g>
    </g>
</svg>